<?xml version="1.0" encoding="UTF-8"?>
<svg width="14px" height="14px" viewBox="0 0 14 14" version="1.1" xmlns="http://www.w3.org/2000/svg" xmlns:xlink="http://www.w3.org/1999/xlink">
    <title>Icon/Search</title>
    <g id="页面-1" stroke="none" stroke-width="1" fill="none" fill-rule="evenodd">
        <g id="弹窗操作" transform="translate(-1067.000000, -202.000000)">
            <g id="字段库" transform="translate(810.000000, 78.000000)">
                <g id="编组-2" transform="translate(20.000000, 111.000000)">
                    <g id="Icon/Search" transform="translate(236.000000, 12.000000)">
                        <rect id="矩形" fill="#000000" fill-rule="nonzero" opacity="0" x="0" y="0" width="16" height="16"></rect>
                        <path d="M14.2125,13.3515625 L10.1546875,9.29375 C10.784375,8.4796875 11.125,7.484375 11.125,6.4375 C11.125,5.184375 10.6359375,4.009375 9.7515625,3.1234375 C8.8671875,2.2375 7.6890625,1.75 6.4375,1.75 C5.1859375,1.75 4.0078125,2.2390625 3.1234375,3.1234375 C2.2375,4.0078125 1.75,5.184375 1.75,6.4375 C1.75,7.6890625 2.2390625,8.8671875 3.1234375,9.7515625 C4.0078125,10.6375 5.184375,11.125 6.4375,11.125 C7.484375,11.125 8.478125,10.784375 9.2921875,10.15625 L13.35,14.2125 C13.4,14.2625 13.48125,14.2625 13.53125,14.2125 L14.2125,13.5328125 C14.2625,13.4828125 14.2625,13.4015625 14.2125,13.3515625 Z M8.9125,8.9125 C8.25,9.5734375 7.371875,9.9375 6.4375,9.9375 C5.503125,9.9375 4.625,9.5734375 3.9625,8.9125 C3.3015625,8.25 2.9375,7.371875 2.9375,6.4375 C2.9375,5.503125 3.3015625,4.6234375 3.9625,3.9625 C4.625,3.3015625 5.503125,2.9375 6.4375,2.9375 C7.371875,2.9375 8.2515625,3.3 8.9125,3.9625 C9.5734375,4.625 9.9375,5.503125 9.9375,6.4375 C9.9375,7.371875 9.5734375,8.2515625 8.9125,8.9125 Z" id="形状" fill="#FFFFFF"></path>
                    </g>
                </g>
            </g>
        </g>
    </g>
</svg>