<svg viewBox="0 0 400 300" fill="none" xmlns="http://www.w3.org/2000/svg"><path d="M253.59 180.79h-66.2l-13.37-48-8.76-31c-3.91-11.25.16-22.73 7.12-24.82a8.237 8.237 0 0 1 2.28-.33h63.84c3.39 0 10.65 2.24 11.58 5.5L272.35 156a19.491 19.491 0 0 1-4.02 18.047 19.5 19.5 0 0 1-14.74 6.743Z" fill="#fff" stroke="#0C296E" stroke-width=".8" stroke-miterlimit="10"/><path d="M174 132.74a121.705 121.705 0 0 0-7.06 11.95l-10.33 23.6s-.22-10.66-15.16-15.92c-14-4.92-21.15.61-21.47.84l13.23-25.07a206.095 206.095 0 0 1 11.26-20.53c5.29-8.46 10.42-17.8 13.67-21.89 7.51-9.48 14.17-9 14.17-9l.08.23c-7 2.08-11 13.56-7.12 24.82l8.73 30.97Z" fill="#fff"/><path d="M138.79 117.4c5.15-6.27 33.59 0 32.81 19.25l-3.6 6.18c1.2-20.21-27.28-26.08-32.64-18.89l3.43-6.54Z" fill="#00D6B9"/><path d="M124.16 143.59c4.61-6.68 36.45-2.31 37.37 14.91l-4.75 11.39c-.81-17.63-31.71-24.2-36.46-16.59l3.84-9.71Z" fill="#00D6B9" stroke="#0C296E" stroke-width=".8" stroke-linecap="round" stroke-linejoin="round"/><path d="M174 132.74a121.705 121.705 0 0 0-7.06 11.95l-10.33 23.6s-.22-10.66-15.16-15.92c-14-4.92-21.15.61-21.47.84l13.23-25.07a206.095 206.095 0 0 1 11.26-20.53c5.29-8.46 10.42-17.8 13.67-21.89 7.51-9.48 14.17-9 14.17-9l.08.23c-7 2.08-11 13.56-7.12 24.82l8.73 30.97Z" stroke="#0C296E" stroke-width=".8" stroke-miterlimit="10"/><path d="M293.56 208.3v52.4h-82.13a22.32 22.32 0 0 1-22.32-22.32A21.168 21.168 0 0 1 189 234a30 30 0 0 1 7-17.57l28.89-35.68h28.7a19.504 19.504 0 0 0 18.703-13.996c.789-2.68.992-5.498.597-8.264.13.37 1.16 3.5 2.85 9.54 1.95 6.93 9.7 28.55.06 40.17l17.76.1Z" fill="#0C296E"/><path d="m225.81 179.65-.92 1.14M209.81 260.7H185a22.32 22.32 0 0 1-22.32-22.32s-1.32-7.74 3.3-17.61l6.78-11.77" stroke="#0C296E" stroke-width=".8" stroke-linecap="round" stroke-linejoin="round"/><path d="M52.04 142.39v118.52h157.65V156.29h-96.16l-9.84-14-51.65.1Z" fill="#0C296E"/><path d="M253.39 180.68h-66.21l-2.29-8.2 58-.6h5.28a18.66 18.66 0 0 0 10.08-2.83c4.1-2.63 9.9-8.48 12-18.8h.17l1.72 5.7c.234.817.411 1.649.53 2.49a19.498 19.498 0 0 1-19.28 22.24Z" fill="#00D6B9" stroke="#0C296E" stroke-width=".8" stroke-linecap="round" stroke-linejoin="round"/><path d="m52.22 260.91 32.12-87.87h149.7l-24.17 87.87H52.22Z" fill="#fff"/><path d="M52.22 261.13S67.36 244.32 94.87 245c31.61.84 37.38-3 46.78-9.8 9.4-6.8 45.21-22.63 83.24-11.13-5.43 12.46-14.37 37.75-14.37 37.75l-158.3-.69Z" fill="#E0E2E4"/><path d="m52.22 260.91 32.12-87.87h149.7l-24.17 87.87H52.22Z" stroke="#0C296E" stroke-width=".8" stroke-linecap="round" stroke-linejoin="round"/><path d="m213.72 190.88-18.87-35 37.87-23.19-9.35-25.42c-3.46-10.4-3.77-24.35 10.77-29.57 13.06-4.69 22.66 5.19 26.12 15.59l11.58 33.92c3.82 11.17.9 25.92-9.16 32.1l-48.96 31.57Z" fill="#fff"/><path d="M272.82 150.31c2-27.24-34.79-30.61-42.51-15.48 12.17-11 40.28-1.26 35.06 23.49l7.45-8.01Z" fill="#00D6B9"/><path d="m213.72 190.88-18.87-35 37.87-23.19-9.35-25.42c-3.46-10.4-3.77-24.35 10.77-29.57 13.06-4.69 22.66 5.19 26.12 15.59l11.58 33.92c3.82 11.17.9 25.92-9.16 32.1l-48.96 31.57Z" stroke="#0C296E" stroke-width=".8" stroke-miterlimit="10"/><path d="M192.36 159.36s-17.94.83-26.67 13.19h11.62s-10.3 9-17 13.34c-7.72 5-2.83 11.7 2.06 10-6.1 3-2.18 10.34 4.28 8-2.75 2.87 1.28 8.47 8.57 5-1.55 2.06 1.84 4.61 6 3.75 5.14-1.06 9.12-3.23 13.81-6.6 6.38-4.58 15.67-14.8 15.67-14.8l-18.34-31.88ZM126 148.74h-.03a7.86 7.86 0 0 0-7.86 7.86v8.13a7.86 7.86 0 0 0 7.86 7.86h.03a7.86 7.86 0 0 0 7.86-7.86v-8.13a7.86 7.86 0 0 0-7.86-7.86Z" fill="#fff" stroke="#0C296E" stroke-width=".8" stroke-linecap="round" stroke-linejoin="round"/><path d="m258.35 223.74 17.98-15.79M283.46 207.95v52.75" stroke="#fff" stroke-width=".8" stroke-linecap="round" stroke-linejoin="round"/><path d="M350.84 223.93c0 20.32-8.87 36.79-34 36.79h-23.28" fill="#fff"/><path d="M350.84 223.93c0 20.32-8.87 36.79-34 36.79h-23.28" stroke="#0C296E" stroke-width=".8" stroke-linecap="round" stroke-linejoin="round"/><path d="M293.55 224.56h57.78v-16.28h-57.78v16.28Z" fill="#0C296E"/><path d="m213.71 128.91-3.19 4.56-4.84-20.07-18.25.35-5.79.11 3.89-3.07 23.82-.4 4.36 18.52Z" fill="#0C296E" stroke="#0C296E" stroke-width=".8" stroke-linecap="round" stroke-linejoin="round"/><path d="M196.63 133.47v.11l-9.74.08-5.25-19.8 5.79-.11-.04.02 1.61 8.17h4.82l2.81 11.53Z" fill="#00D6B9" stroke="#0C296E" stroke-width=".8" stroke-linecap="round" stroke-linejoin="round"/><path d="M196.63 133.58v-.11l-2.81-11.53H189l-1.61-8.17.04-.02 18.25-.35 4.84 20.07-13.89.11Z" fill="#00D6B9" stroke="#0C296E" stroke-width=".8" stroke-linecap="round" stroke-linejoin="round"/><path d="M252.13 100.77 237 105.52l-3.08-7.65 14.94-4.6 3.27 7.5Z" fill="#00D6B9"/><path d="m260.92 178.46-26.81 20.1 2.27 12.25-14.1 12.11c-4.52 3.88-3.86 15.18 4 15.18h57.21" stroke="#fff" stroke-width=".8" stroke-linecap="round" stroke-linejoin="round"/><path d="M332 224.57c.45 13.54-.92 29.14-14.11 36.13L332 224.57Z" fill="#fff"/><path d="M332 224.57c.45 13.54-.92 29.14-14.11 36.13" stroke="#0C296E" stroke-width=".8" stroke-linecap="round" stroke-linejoin="round"/><path d="M293.56 68.21a8.01 8.01 0 1 0 0-16.02 8.01 8.01 0 0 0 0 16.02Z" fill="#00D6B9"/><path d="M203.91 127.46a2.001 2.001 0 0 1-1.3 2.52 2.153 2.153 0 0 1-2.44-1.58 1.995 1.995 0 0 1 .052-1.591 1.99 1.99 0 0 1 1.198-1.049 2.16 2.16 0 0 1 2.49 1.7ZM202.17 120a2.607 2.607 0 0 1-.801 2.807 2.61 2.61 0 0 1-.899.493 2.815 2.815 0 0 1-2.005-.409 2.817 2.817 0 0 1-1.195-1.661 2.624 2.624 0 0 1 .069-2.081c.153-.324.37-.613.638-.851.269-.237.583-.416.923-.528a2.833 2.833 0 0 1 3.27 2.23Z" fill="#fff"/><path d="M293.56 208.29v16.28" stroke="#fff" stroke-width=".8" stroke-linecap="round" stroke-linejoin="round"/><path d="m203.928 150.163-12.929 7.465 20.115 34.84 12.929-7.465-20.115-34.84Z" fill="#00D6B9" stroke="#0C296E" stroke-width=".8" stroke-linecap="round" stroke-linejoin="round"/><path d="m176.93 173.02 4.55-4.42" stroke="#0C296E" stroke-width=".8" stroke-miterlimit="10"/><path d="m186.56 156.47-14.18-51.85c-4.19-11.15-6.12-21.58 1-27.58-1.078.31-2.115.746-3.09 1.3-5.78 4.47-7.56 12.5-5.19 21.5l16 56.63M232.18 132.5l-9.79-27c-4-16.08.51-23.74 12.33-28.48A18.6 18.6 0 0 0 229 78c-6.45 2.54-16 9.92-10.48 29.35l10.28 27.26" fill="#00D6B9"/><path d="M195.218 87.344c11.105-.64 19.588-10.161 18.948-21.266-.641-11.105-10.162-19.588-21.266-18.947-11.105.64-19.588 10.161-18.948 21.266.641 11.104 10.162 19.587 21.266 18.947Z" fill="#fff"/><path d="M181.39 85.68c11.71 9.19 27.61-4.93 24.23-18 0 0-20.62 7.58-31.7-.48-11.08-8.06 2.61 18.29 7.47 18.48Z" fill="#fff" stroke="#0C296E" stroke-width=".8" stroke-linecap="round" stroke-linejoin="round"/><path d="M195.218 87.344c11.105-.64 19.588-10.161 18.948-21.266-.641-11.105-10.162-19.588-21.266-18.947-11.105.64-19.588 10.161-18.948 21.266.641 11.104 10.162 19.587 21.266 18.947Z" stroke="#0C296E" stroke-width=".8" stroke-miterlimit="10"/><path d="M206.5 70c-15.56 6.53-31.53 1.62-33.65-2.48 0-.67.36-4.16.36-5.09.22 0 .64.13.84.11v.47c1.65 3.26 18.32 8 31.48 2.21l.97 4.78Z" fill="#00D6B9"/><path d="M204.476 75.849c2.662-.056 4.753-3.23 4.672-7.09-.082-3.86-2.305-6.943-4.967-6.887-2.661.056-4.753 3.23-4.671 7.09.081 3.86 2.305 6.943 4.966 6.887Z" fill="#0C296E"/><path d="M206.22 75.238c2.48-.05 4.432-3.005 4.36-6.6-.072-3.595-2.141-6.47-4.62-6.42-2.48.05-4.432 3.004-4.36 6.6.072 3.595 2.14 6.47 4.62 6.42Z" fill="#fff" stroke="#0C296E" stroke-width=".8" stroke-miterlimit="10"/><path d="M206.439 72.666c1.369-.028 2.441-1.87 2.394-4.111-.048-2.242-1.196-4.036-2.565-4.007-1.37.03-2.442 1.87-2.394 4.112.047 2.242 1.196 4.035 2.565 4.006Z" fill="#00D6B9"/><path d="M190.42 81.87a1.27 1.27 0 1 0 0-2.54 1.27 1.27 0 0 0 0 2.54ZM181.39 80.27a1.27 1.27 0 1 0 0-2.539 1.27 1.27 0 0 0 0 2.54Z" fill="#0C296E"/><path d="M104.94 159.6c-11.24-1-34.52-20.42-27.32-41.62 4.24-12.5 16.18-9.63 17.44-4.11 1.84 8.07-7.38 10.47-13.46 9.27-9.71-1.91-18.79-17.51-9.82-35.81" stroke="#00B798" stroke-width=".8" stroke-linecap="round" stroke-linejoin="round" stroke-dasharray="4 2"/><path d="M94.44 80.28c-7 2.86-14 1.53-15.6-3.54-1.6-5.07 2.05-10.74 9.71-13.25 8.88-2.86 18.92 2.8 18.32 3.75-2.23 3.66-5.69 10.27-12.43 13.04Z" fill="#FFC60A"/><path d="M106.87 67.24S84 67.86 74.5 82.48" stroke="#0C296E" stroke-width=".8" stroke-linecap="round" stroke-linejoin="round"/><path d="M162.17 196a67.174 67.174 0 0 0 17-10.25l-17 10.25Z" fill="#fff"/><path d="M162.17 196a67.174 67.174 0 0 0 17-10.25" stroke="#0C296E" stroke-width=".8" stroke-miterlimit="10"/><path d="M166.45 204s9.54-3.59 15.55-8.79L166.45 204Z" fill="#fff"/><path d="M166.45 204s9.54-3.59 15.55-8.79" stroke="#0C296E" stroke-width=".8" stroke-miterlimit="10"/><path d="M175 208.91a48.423 48.423 0 0 0 13.92-7.75L175 208.91Z" fill="#fff"/><path d="M175 208.91a48.423 48.423 0 0 0 13.92-7.75M210.52 191.45l-18.36-31.8" stroke="#0C296E" stroke-width=".8" stroke-miterlimit="10"/><path d="M348.54 149.51s.69 10.08-15.23 11.38c-.14-6.22 0-30.27 0-30.27l10.95 1.69 4.28 17.2Z" fill="#3370FF"/><path d="M305.62 105.38c20 .45 30.87 4.31 36.86 9.76a18.29 18.29 0 0 1 5.84 13.21c.13 7.33-.08 14.65.26 22-1.82-13.72-15-21.59-43.26-22.46.22-8.51.19-13.95.3-22.51Z" fill="#fff" stroke="#0C296E" stroke-width=".8" stroke-miterlimit="10"/><path d="M312.69 113.28s20.48-.38 29.35 10.81l-29.35-10.81Z" fill="#fff"/><path d="M312.69 113.28s20.48-.38 29.35 10.81" stroke="#0C296E" stroke-width=".8" stroke-linecap="round" stroke-linejoin="round"/><path d="M312.69 120.91s11.85-.4 19.73 5l-19.73-5Z" fill="#fff"/><path d="M312.69 120.91s11.85-.4 19.73 5M297.33 178.31l15.98-4.78-2.93 17.51-13.05-12.73Z" stroke="#0C296E" stroke-width=".8" stroke-linecap="round" stroke-linejoin="round"/></svg>