<svg width="313" height="313" viewBox="0 0 313 313" fill="none" xmlns="http://www.w3.org/2000/svg">
<path d="M36.3083 262.109L36.3083 58.543C36.3062 51.6883 37.3746 44.9039 39.4491 38.6024C41.5235 32.3009 44.5606 26.6127 48.376 21.8834C52.1914 17.1541 56.7058 13.4821 61.6453 11.0902C66.5844 8.69828 71.8461 7.63578 77.1106 7.96794C86.2193 8.7493 94.8392 13.6067 101.507 21.7161C108.174 29.8251 112.478 40.6855 113.687 52.4534C113.683 52.4586 113.679 52.4645 113.677 52.4716C113.675 52.4783 113.674 52.4855 113.674 52.493C113.674 52.5005 113.675 52.5076 113.677 52.5143C113.679 52.521 113.683 52.5274 113.687 52.5325H113.717V52.6116C113.731 52.771 113.751 52.9295 113.778 53.0861C113.996 55.3819 114.108 57.6928 114.112 60.0061L114.112 211.81H237.492C246.543 211.819 255.335 215.742 262.484 222.961L262.515 223.001C262.545 223.001 262.575 223.04 262.606 223.08C262.636 223.12 262.697 223.199 262.758 223.278C262.822 223.366 262.893 223.446 262.971 223.515C267.244 227.89 270.749 233.403 273.25 239.685C275.751 245.966 277.191 252.87 277.473 259.934C277.726 266.78 276.908 273.621 275.067 280.044C273.227 286.466 270.404 292.336 266.768 297.298C263.132 302.259 258.76 306.209 253.916 308.908C249.072 311.607 243.857 312.999 238.587 313H75.4384C70.2995 313.002 65.2104 311.686 60.4625 309.129C55.7143 306.572 51.4003 302.824 47.7664 298.098C44.1325 293.372 41.2502 287.761 39.2842 281.586C37.3183 275.411 36.3071 268.792 36.3083 262.109Z" fill="url(#paint0_linear_705_23)"/>
<g style="mix-blend-mode:screen" opacity="0.3">
<g style="mix-blend-mode:screen" opacity="0.3">
<path d="M45.4308 262.109V260.487H268.35V261.001C268.35 261.247 268.35 261.606 268.35 262.057C268.396 267.174 267.66 272.251 266.184 276.994C264.708 281.738 262.523 286.052 259.754 289.688C256.986 293.324 253.69 296.208 250.057 298.174C246.425 300.139 242.528 301.146 238.594 301.137H75.4457C67.488 301.131 59.8569 297.017 54.2294 289.699C48.6016 282.382 45.4372 272.459 45.4308 262.109Z" fill="white"/>
</g>
</g>
<g style="mix-blend-mode:screen" opacity="0.6">
<path d="M75.4368 301.137C75.4368 301.137 78.7509 300.979 84.5276 300.742C90.3044 300.584 98.5743 300.188 108.486 300.03C118.398 299.872 129.951 299.476 142.326 299.437C154.7 299.397 167.926 299.239 181.152 299.16C194.377 299.239 207.573 299.358 219.978 299.437C226.18 299.516 232.17 299.595 237.825 299.714C243.02 299.998 248.177 298.454 252.753 295.245C256.621 292.47 259.99 288.656 262.635 284.055C264.67 280.449 266.203 276.407 267.165 272.113C267.768 269.324 268.145 266.462 268.29 263.572C268.317 262.979 268.332 262.476 268.342 262.057C268.387 267.174 267.651 272.251 266.175 276.994C264.699 281.738 262.514 286.052 259.745 289.688C256.977 293.324 253.681 296.208 250.048 298.174C246.416 300.139 242.519 301.146 238.585 301.137H75.4368Z" fill="white"/>
</g>
<g style="mix-blend-mode:screen" opacity="0.6">
<path d="M182.673 176.736C183.221 175.945 184.589 174.008 186.566 171.161C189.271 167.404 193.042 161.947 197.724 155.62C202.406 149.294 207.818 141.741 213.747 133.951C219.676 126.082 226 117.739 232.354 109.395C235.546 105.283 238.769 101.17 241.931 97.0973C245.093 93.0244 248.255 89.0701 251.174 85.195C253.872 81.5444 255.999 77.2469 257.437 72.5413C258.726 68.2549 259.406 63.6996 259.444 59.0968C259.468 55.1892 259.047 51.2986 258.197 47.5504C257.525 44.6337 256.608 41.8222 255.461 39.1673C254.689 37.4693 253.825 35.8441 252.877 34.3035C252.616 33.8994 252.372 33.4771 252.147 33.0382C252.283 33.1762 252.406 33.3356 252.512 33.5127C257.684 40.8819 260.478 50.5568 260.314 60.5326C260.15 70.508 257.04 80.0188 251.63 87.093L182.673 176.736Z" fill="white"/>
</g>
<g style="mix-blend-mode:multiply" opacity="0.3">
<path d="M113.686 52.5321H113.716V52.6112C113.7 52.5899 113.689 52.5622 113.686 52.5321Z" fill="black"/>
</g>
<g style="mix-blend-mode:multiply" opacity="0.3">
<path d="M36.3081 256.019L36.3081 58.5433C36.3059 51.6882 37.3746 44.9042 39.4488 38.6027C41.5233 32.3008 44.5603 26.613 48.3758 21.8837C52.1912 17.1544 56.7055 13.4824 61.645 11.0905C66.5844 8.69815 71.8459 7.63605 77.1103 7.96821C86.2191 8.74957 94.839 13.607 101.506 21.7164C108.174 29.8254 112.478 40.6858 113.686 52.4537C113.565 51.8606 113.352 50.7929 113.078 49.2508C112.347 45.705 111.349 42.2612 110.099 38.9697C108.196 33.877 105.647 29.2382 102.559 25.2484C98.6544 20.1074 93.9329 16.1393 88.7247 13.6228C85.8114 12.208 82.7631 11.3163 79.6643 10.9735L77.1103 10.7362C76.3198 10.7362 75.5293 10.7757 74.7084 10.8153C73.0259 10.8513 71.3482 11.0628 69.6918 11.448C62.6553 13.0862 56.1318 17.3288 50.902 23.6666C48.1702 26.9696 45.8425 30.797 44.0003 35.0154C42.1827 39.3643 40.8419 44.0228 40.0174 48.8553C39.6534 51.3216 39.43 53.8195 39.3485 56.3289L39.2877 58.3455C39.2573 58.6223 39.2877 59.6109 39.2877 60.2041V64.277C39.3181 69.7338 39.3181 75.2303 39.3485 80.6872C39.2877 91.68 39.2573 102.633 39.2269 113.389C39.1356 124.184 39.0444 134.821 38.9532 145.063C38.7404 165.625 38.4364 184.803 38.0411 201.253C37.7067 217.663 37.1594 231.384 36.8858 240.954C36.5513 250.562 36.3081 256.019 36.3081 256.019Z" fill="black"/>
</g>
<g style="mix-blend-mode:screen" opacity="0.6">
<path d="M109.765 313C109.765 313 113.291 312.644 119.433 312.249C125.575 311.853 134.392 311.181 144.942 310.746C155.462 310.232 167.776 309.797 180.971 309.52C187.569 309.441 194.379 309.204 201.281 309.204C208.213 309.125 215.236 309.085 222.26 309.046C225.787 309.085 229.313 309.085 232.81 309.125L238.039 309.164C239.742 309.085 241.293 309.046 242.904 308.808C249.171 307.905 255.152 304.908 260.265 300.109C265.101 295.587 269.032 289.62 271.727 282.71C272.379 281.079 272.938 279.387 273.399 277.649C273.892 275.999 274.298 274.308 274.615 272.587C274.767 271.717 274.95 270.887 275.102 270.057L275.376 267.565C275.467 266.735 275.588 265.944 275.649 265.114C275.71 264.283 275.71 263.374 275.71 262.504C276.098 251.709 273.689 241.057 268.869 232.254C267.491 229.758 265.966 227.405 264.308 225.215C263.731 224.464 263.275 223.91 262.971 223.515C267.244 227.89 270.749 233.403 273.25 239.685C275.751 245.966 277.191 252.87 277.473 259.934C277.726 266.78 276.908 273.621 275.067 280.044C273.227 286.466 270.404 292.336 266.768 297.298C263.132 302.259 258.76 306.209 253.916 308.908C249.072 311.607 243.857 312.999 238.587 313H109.765Z" fill="white"/>
</g>
<g style="mix-blend-mode:screen" opacity="0.4">
<path d="M111.071 215.685L111.102 211.81C111.162 200.264 111.132 188.757 111.314 177.21C111.436 165.704 111.558 154.157 111.801 142.65L112.196 125.33L112.683 108.05C113.169 96.5434 113.473 84.997 114.112 73.4901L114.112 211.81H230.377C220.678 212.72 211.009 213.155 201.311 213.787C191.612 214.301 181.943 214.697 172.244 214.974C162.545 215.25 152.877 215.409 143.178 215.606C133.479 215.646 123.811 215.804 114.112 215.725L111.071 215.685Z" fill="white"/>
</g>
<path d="M277.518 154.22C277.519 161.953 275.253 169.516 271 175.974C266.747 182.432 260.695 187.502 253.591 190.557C246.487 193.611 238.644 194.516 231.031 193.159C223.418 191.802 216.37 188.244 210.759 182.923L210.696 182.861C206.898 179.25 203.86 174.918 201.757 170.118C199.655 165.317 198.532 160.146 198.454 154.906V154.829C198.437 154.629 198.43 154.428 198.434 154.226C198.433 147.337 200.232 140.567 203.653 134.587C207.074 128.607 211.997 123.624 217.936 120.131C223.875 116.639 230.623 114.759 237.511 114.677C244.4 114.594 251.191 116.313 257.212 119.662C257.357 119.766 257.42 119.808 257.42 119.808C264.323 123.698 269.893 129.58 273.403 136.684C273.423 136.73 273.451 136.773 273.486 136.809C276.144 142.228 277.524 148.184 277.518 154.22Z" fill="#FF9100"/>
<path d="M276.925 7.55613e-06V100.873H36.308V50.6937C36.3095 44.0335 37.6232 37.4391 40.1738 31.2868C42.7244 25.1345 46.4621 19.545 51.1733 14.8374C55.8845 10.1299 61.477 6.39654 67.6313 3.85074C73.7856 1.30491 80.381 -0.00362832 87.0412 7.55613e-06H276.925Z" fill="url(#paint1_linear_705_23)"/>
<defs>
<linearGradient id="paint0_linear_705_23" x1="156.913" y1="308.729" x2="156.913" y2="16.7563" gradientUnits="userSpaceOnUse">
<stop stop-color="#FF9100"/>
<stop offset="1" stop-color="#F16823"/>
</linearGradient>
<linearGradient id="paint1_linear_705_23" x1="275.481" y1="50.4367" x2="42.564" y2="50.4367" gradientUnits="userSpaceOnUse">
<stop stop-color="#F80300"/>
<stop offset="0.033" stop-color="#F81000"/>
<stop offset="0.158" stop-color="#F93F00"/>
<stop offset="0.288" stop-color="#FA6800"/>
<stop offset="0.419" stop-color="#FA8900"/>
<stop offset="0.554" stop-color="#FBA300"/>
<stop offset="0.693" stop-color="#FBB500"/>
<stop offset="0.838" stop-color="#FBC000"/>
<stop offset="1" stop-color="#FCC400"/>
</linearGradient>
</defs>
</svg>
