<svg width="250" height="250" viewBox="0 0 250 250" fill="none" xmlns="http://www.w3.org/2000/svg">
<g clip-path="url(#clip0_404_107)">
<path d="M141.136 243.042L243.193 140.984C252.067 132.11 252.067 117.588 243.193 108.713L141.136 6.65591C132.261 -2.21864 117.739 -2.21864 108.864 6.65591L6.80716 108.713C-2.06739 117.588 -2.06739 132.11 6.80716 140.984L108.864 243.042C117.739 252.319 132.261 252.319 141.136 243.042Z" fill="#FF9100"/>
<path d="M141.306 243.042L243.487 140.984C252.373 132.11 252.373 117.588 243.487 108.713L141.306 6.65591C132.421 -2.21864 117.881 -2.21864 108.996 6.65591L6.81522 108.713C-2.07008 117.588 -2.07008 132.11 6.81522 140.984L108.996 243.042C117.881 252.319 132.421 252.319 141.306 243.042Z" fill="#FF9100"/>
<path d="M243.336 140.984C252.221 132.11 252.221 117.588 243.336 108.713L141.155 6.65591C132.27 -2.21864 117.73 -2.21864 108.845 6.65591L6.66397 108.713C-2.22132 117.588 -2.22132 132.11 6.66397 140.984" fill="#F16823"/>
<g style="mix-blend-mode:overlay">
<path d="M172.764 140.789C168.73 160.959 150.981 178.305 129.198 180.725C120.323 181.532 112.256 180.322 104.591 177.094C103.381 178.305 88.4557 193.23 86.8421 194.844C99.7505 202.508 115.483 206.542 131.618 204.928C159.049 202.105 181.638 183.952 192.126 160.152L172.764 140.789Z" fill="white"/>
</g>
<g style="mix-blend-mode:overlay">
<path d="M74.8717 185.045C77.6955 187.869 80.5192 190.289 83.7463 192.709L187.014 89.4419C184.593 86.2148 182.173 83.3911 179.349 80.5674L74.8717 185.045Z" fill="white"/>
<path d="M176.005 78.3155C172.396 75.5088 169.59 73.1031 166.382 71.0984C153.151 63.0794 137.514 59.07 121.075 60.6738C80.5793 64.6832 51.3101 100.769 55.3195 141.264C56.5224 153.694 60.5319 164.118 66.5461 173.741C68.1499 176.548 72.5603 181.76 72.5603 181.76L176.005 78.3155ZM125.485 84.3297C133.905 83.5278 142.325 84.7306 149.542 87.9382L84.5888 152.892C82.584 148.481 81.3812 143.67 80.9802 138.859C78.5745 111.594 98.221 87.1363 125.485 84.3297Z" fill="white"/>
</g>
</g>
<defs>
<clipPath id="clip0_404_107">
<rect width="250" height="250" fill="white"/>
</clipPath>
</defs>
</svg>
