<svg viewBox="0 0 400 300" fill="none" xmlns="http://www.w3.org/2000/svg"><path d="M349.95 197.39a7.95 7.95 0 1 0 0-15.9 7.95 7.95 0 0 0 0 15.9Z" fill="#00D6B9"/><path d="M107.63 76.72A7.208 7.208 0 0 0 96.43 71a14.76 14.76 0 0 0-19.76-6.26 19 19 0 0 0-32.74 12l63.7-.02Z" fill="#F2F2F2"/><path d="m281.1 220.09 84.15 51.49H38.39l90.21-51.49" fill="#F0F1F2"/><path d="m38.39 271.58 90.21-51.5M281.1 220.08l84.15 51.5" stroke="#0C296E" stroke-width=".8" stroke-linecap="round" stroke-linejoin="round"/><path d="M169.47 134.83a44.402 44.402 0 0 0-43.57-44.42 44.4 44.4 0 0 0-45.2 42.76h-.14V222h88.83v-84.68c.05-.82.08-1.66.08-2.49Z" fill="#E0E2E4"/><path d="M169.42 134.91H80.59V144h88.83v-9.09Z" fill="#0C296E"/><path d="M324 134.83c0-.84 0-1.67-.07-2.5v-.14a44.402 44.402 0 0 0-44.32-41.736 44.4 44.4 0 0 0-44.32 41.736h-.18V222h88.83v-84.68c.06-.82.06-1.66.06-2.49Z" fill="#E0E2E4"/><path d="M323.89 134.91h-88.83V144h88.83v-9.09Z" fill="#0C296E"/><path d="M205.18 179.3c36.318 0 65.76-29.441 65.76-65.76 0-36.318-29.442-65.76-65.76-65.76-36.318 0-65.76 29.442-65.76 65.76 0 36.319 29.442 65.76 65.76 65.76Z" fill="#fff" stroke="#0C296E" stroke-width=".8" stroke-linecap="round" stroke-linejoin="round"/><path d="M297.4 90.24H112.66V222H297.4V90.24Z" fill="#F2F2F2" stroke="#0C296E" stroke-width=".8" stroke-linecap="round" stroke-linejoin="round"/><path d="M252.54 90.24h-95.02V221.8h95.02V90.24Z" fill="#FCFCFC"/><path d="M152.47 212.5V98.09M257.89 212.5V98.09" stroke="#0C296E" stroke-width=".8" stroke-linecap="round" stroke-linejoin="round"/><path d="M288.41 132.02h-20.13v25.88h20.13v-25.88Z" fill="#00D6B9"/><path d="M285.75 134.21h-14.81v4.49h14.81v-4.49ZM274.58 141.02h-3.64v3.64h3.64v-3.64ZM285.75 141.02h-3.64v3.64h3.64v-3.64ZM280.19 141.02h-3.64v3.64h3.64v-3.64ZM274.58 146.62h-3.64v3.64h3.64v-3.64ZM285.75 146.62h-3.64v3.64h3.64v-3.64ZM280.19 146.62h-3.64v3.64h3.64v-3.64ZM274.58 151.81h-3.64v3.64h3.64v-3.64ZM285.75 151.81h-3.64v3.64h3.64v-3.64ZM280.19 151.81h-3.64v3.64h3.64v-3.64Z" fill="#fff"/><path d="M48.07 164.21 62.38 155l2.09 17.99-16.4-8.78Z" fill="#FFC60A"/><path d="M297.25 212.13H112.74v9.74h184.51v-9.74ZM297.4 90.05H112.66v9.74H297.4v-9.74Z" fill="#0C296E"/><path d="M347.62 55.9h-63a8.33 8.33 0 0 0-8.33 8.33v47.93l10.35-12h61a8.332 8.332 0 0 0 8.36-8.32V64.23a8.326 8.326 0 0 0-5.177-7.71 8.33 8.33 0 0 0-3.203-.62Z" fill="#FFC60A"/><path d="M297.26 67.77a6.71 6.71 0 0 1 6.74 6.71v5.41a1.3 1.3 0 0 1-1.3 1.3h-10.85a1.298 1.298 0 0 1-1.3-1.3v-5.41a6.711 6.711 0 0 1 6.71-6.71Z" stroke="#0C296E" stroke-width="3" stroke-miterlimit="10"/><path d="M306.18 75.97h-17.84a1.49 1.49 0 0 0-1.49 1.49v11.12c0 .823.667 1.49 1.49 1.49h17.84a1.49 1.49 0 0 0 1.49-1.49V77.46a1.49 1.49 0 0 0-1.49-1.49Z" fill="#0C296E"/><path d="M341.21 69.27h-23v4.03h23v-4.03ZM341.21 77.32h-23v4.03h23v-4.03ZM327.5 85.37h-9.29v4.03h9.29v-4.03Z" fill="#fff"/><path d="M161.53 105.69v9.53l-10.94-9.56 10.94.03Z" fill="#FFC60A"/><path d="M161.85 81.32H117c-6.804 0-12.32 5.516-12.32 12.32s5.516 12.32 12.32 12.32h44.85c6.804 0 12.32-5.516 12.32-12.32s-5.516-12.32-12.32-12.32Z" fill="#FFC60A"/><path d="M114.5 93.39c2.49 5.65 16 6.91 19.49 1.45 4.14-6.58-6.39-9-6.33-2.44.08 8.22 21.31 7.45 23.88.8 2.57-6.65-6.08-7.29-6.66-2.39-.58 4.9 8.52 10.15 19.46 1.83" stroke="#0C296E" stroke-width=".8" stroke-linecap="round" stroke-linejoin="round"/><path d="M218.941 123.373c1.6-7.649-3.305-15.147-10.954-16.746-7.65-1.6-15.147 3.305-16.747 10.954-1.599 7.65 3.305 15.147 10.955 16.747 7.649 1.599 15.147-3.305 16.746-10.955Z" fill="#fff" stroke="#0C296E" stroke-width=".8" stroke-miterlimit="10"/><path d="M205.6 120.93c5.88-2.63 9.83-7.76 10.78-10.57a23.76 23.76 0 0 0-2.94-2.49c-1.2 4.34-6.56 9.54-10.3 11.75l2.46 1.31Z" fill="#00D6B9"/><path d="M209.24 121.349a4.48 4.48 0 1 0-8.77-1.834 4.48 4.48 0 0 0 8.77 1.834Z" fill="#fff" stroke="#0C296E" stroke-width=".8" stroke-miterlimit="10"/><path d="M207.645 121.016a2.85 2.85 0 1 0-5.58-1.166 2.85 2.85 0 0 0 5.58 1.166Z" fill="#00D6B9"/><path d="M215.804 122.267a1.16 1.16 0 1 0-2.271-.475 1.16 1.16 0 0 0 2.271.475Z" fill="#0C296E"/><path d="M205.48 124.85s1.46 5.51 6.07 8.19" stroke="#0C296E" stroke-width=".8" stroke-miterlimit="10"/><path d="M173.77 258.57s-3.93-2.63-5.89-4.25c-.25-4.67-.84-11.33 5.63-11.33" fill="#fff"/><path d="M173.77 258.57s-3.93-2.63-5.89-4.25c-.25-4.67-.84-11.33 5.63-11.33" stroke="#0C296E" stroke-width=".8" stroke-linecap="round" stroke-linejoin="round"/><path d="M236.3 258.57s3.93-2.63 5.89-4.25c.25-4.67.84-11.33-5.63-11.33" fill="#fff"/><path d="M236.3 258.57s3.93-2.63 5.89-4.25c.25-4.67.84-11.33-5.63-11.33" stroke="#0C296E" stroke-width=".8" stroke-linecap="round" stroke-linejoin="round"/><path d="M230.31 180.16c-26.06-.83-50.6.5-50.6.5s4.72-24.06 5-34.29c.27-9.43-1.18-11.09-1.18-11.09h42.82c-.21.33-1.37 2.49-1.14 11 .23 8.51 5.1 33.88 5.1 33.88Z" fill="#fff"/><path d="M229.57 176.41h-5c-.24-1.17-4-20-4.15-29.94-.08-8 .77-10.44 1.11-11.09h4.87s-1.44 1.67-1.18 11.1c.22 6.07 2.52 19.81 4.35 29.93ZM189.61 146.45c-.1 9.75-3.79 28-4.14 29.74h-4.93c1.82-10.1 4.09-23.67 4.26-29.7.27-9.43-1.18-11.1-1.18-11.1h4.8s1.29 1.12 1.19 11.06Z" fill="#00D6B9"/><path d="M230.31 180.16c-26.06-.83-50.6.5-50.6.5s4.72-24.06 5-34.29c.27-9.43-1.18-11.09-1.18-11.09h42.82c-.21.33-1.37 2.49-1.14 11 .23 8.51 5.1 33.88 5.1 33.88Z" stroke="#0C296E" stroke-width=".8" stroke-linecap="round" stroke-linejoin="round"/><path d="m249.05 182.66-17.8 3c-1.52-7.89-5.83-30.92-6.07-39.34-.24-8.42.92-10.71 1.14-11 10.81-1 13.47 6.41 13.47 6.41l9.26 40.93Z" fill="#fff"/><path d="m244.6 162.04-17.5 3.24-.8-5.33 17.21-3.34 1.09 5.43ZM243.21 149.95l-7.85 1.53-1.36-4.83 7.85-1.52 1.36 4.82Z" fill="#00D6B9"/><path d="m249.05 182.66-17.8 3c-1.52-7.89-5.83-30.92-6.07-39.34-.24-8.42.92-10.71 1.14-11 10.81-1 13.47 6.41 13.47 6.41l9.26 40.93Z" stroke="#0C296E" stroke-width=".8" stroke-linecap="round" stroke-linejoin="round"/><path d="M173.67 241.94h29.57l1.89-46.66h-.04l1.9 46.66h29.57l-5.77-63.67h-51.45l-5.67 63.67Z" fill="#0C296E"/><path d="m179.71 180.66 50.74.31" stroke="#0C296E" stroke-width=".8" stroke-linecap="round" stroke-linejoin="round"/><path d="M248.48 181.8s7.39 20.49-12.42 20.49c-3 0-3.8-4-.31-4.78 0 0 .92-.14 2.25-.31 1.07-.13 2-1.09 1.8-3.63a4.305 4.305 0 0 1-1.72-3.46 4.84 4.84 0 0 1 1.38-3.71v-1.24" fill="#fff"/><path d="M248.48 181.8s7.39 20.49-12.42 20.49c-3 0-3.8-4-.31-4.78 0 0 .92-.14 2.25-.31 1.07-.13 2-1.09 1.8-3.63a4.305 4.305 0 0 1-1.72-3.46 4.84 4.84 0 0 1 1.38-3.71v-1.24" stroke="#0C296E" stroke-width=".8" stroke-linecap="round" stroke-linejoin="round"/><path d="M206.81 258.57s3.32 2.76 14 2.76c12.1 0 15.47-2.76 15.47-2.76V243h-29.47v15.57Z" fill="#fff" stroke="#0C296E" stroke-width=".8" stroke-linecap="round" stroke-linejoin="round"/><path d="M204.09 234.98H173.1v8.01h30.99v-8.01ZM236.95 234.98h-30.99v8.01h30.99v-8.01Z" fill="#0C296E"/><path d="m189.61 180.97-1.01 13.98-5.74 2.51-2.25 37.52M220.82 180.97l1.01 13.98 5.74 2.51 2.26 37.52" stroke="#fff" stroke-width=".8" stroke-linecap="round" stroke-linejoin="round"/><path d="M234.8 197.78c2.29-.87 1.13-4.45 1.13-6l-1.13 6Z" fill="#fff"/><path d="M234.8 197.78c2.29-.87 1.13-4.45 1.13-6" stroke="#0C296E" stroke-width=".8" stroke-linecap="round" stroke-linejoin="round"/><path d="M161.59 184.12S154.2 204.6 174 204.6c3 0 3.8-4 .31-4.78 0 0-.92-.14-2.25-.31-1.07-.13-2-1.09-1.8-3.63a4.298 4.298 0 0 0 1.72-3.46 4.844 4.844 0 0 0-1.38-3.71l.5-2.6" fill="#fff"/><path d="M161.59 184.12S154.2 204.6 174 204.6c3 0 3.8-4 .31-4.78 0 0-.92-.14-2.25-.31-1.07-.13-2-1.09-1.8-3.63a4.298 4.298 0 0 0 1.72-3.46 4.844 4.844 0 0 0-1.38-3.71l.5-2.6" stroke="#0C296E" stroke-width=".8" stroke-linecap="round" stroke-linejoin="round"/><path d="M175.26 200.09c-2.29-.87-1.13-4.45-1.13-6l1.13 6Z" fill="#fff"/><path d="M175.26 200.09c-2.29-.87-1.13-4.45-1.13-6" stroke="#0C296E" stroke-width=".8" stroke-linecap="round" stroke-linejoin="round"/><path d="M242.33 253s-4.5 3.23-6 4.26c-3.34 2.24-5.45 3.3-15.5 3.11-10.69-.21-14-3.11-14-3.11v5.34s3.33 2.44 14 2.76c14.8.44 21.5-7.78 21.5-7.78V253Z" fill="#0C296E" stroke="#0C296E" stroke-width=".8" stroke-linecap="round" stroke-linejoin="round"/><path d="M203.25 258.57s-3.32 2.76-14 2.76c-12.1 0-15.47-2.76-15.47-2.76V243h29.48l-.01 15.57Z" fill="#fff" stroke="#0C296E" stroke-width=".8" stroke-linecap="round" stroke-linejoin="round"/><path d="M167.74 253s4.5 3.23 6 4.26c3.34 2.24 5.45 3.3 15.5 3.11 10.69-.21 14-3.11 14-3.11v5.34s-3.33 2.44-14 2.76c-14.8.44-21.5-7.78-21.5-7.78V253Z" fill="#0C296E" stroke="#0C296E" stroke-width=".8" stroke-linecap="round" stroke-linejoin="round"/><path d="M230.79 175.57h-51.52v5.4h51.52v-5.4Z" fill="#00D6B9" stroke="#0C296E" stroke-width=".8" stroke-linecap="round" stroke-linejoin="round"/><path d="m231.25 185.71-.09.01M226.32 135.32h-.43" stroke="#0C296E" stroke-width=".8" stroke-linecap="round" stroke-linejoin="round"/><path d="m249.49 182.85-18.24 3.68-.94-5.71 18.04-3.62 1.14 5.65Z" fill="#00D6B9" stroke="#0C296E" stroke-width=".8" stroke-linecap="round" stroke-linejoin="round"/><path d="m160.68 182.72 17.8 3c1.52-7.89 5.83-30.92 6.07-39.34.24-8.42-.92-10.71-1.14-11-10.81-1-13.47 6.41-13.47 6.41l-9.26 40.93Z" fill="#fff"/><path d="m165.13 162.11 17.5 3.23.8-5.33-17.21-3.34-1.09 5.44Z" fill="#00D6B9"/><path d="m160.68 182.72 17.8 3c1.52-7.89 5.83-30.92 6.07-39.34.24-8.42-.92-10.71-1.14-11-10.81-1-13.47 6.41-13.47 6.41l-9.26 40.93Z" stroke="#0C296E" stroke-width=".8" stroke-linecap="round" stroke-linejoin="round"/><path d="m160.24 183.92 18.24 3.68.94-5.71-18.04-3.62-1.14 5.65Z" fill="#00D6B9" stroke="#0C296E" stroke-width=".8" stroke-linecap="round" stroke-linejoin="round"/><path d="M236.95 234.98h-30.99M204.04 234.98h-30.98" stroke="#fff" stroke-width=".8" stroke-linecap="round" stroke-linejoin="round"/><path d="m234.04 211.95.94 10.39M176.13 211.95l-.94 10.39" stroke="#FCFCFC" stroke-width=".8" stroke-miterlimit="10"/><path d="M264 66s-31.42 13.44-54.22-3.26c-22.8-16.7-35.78-17.21-50.66-9.06l-.81 14.23s22-24 50.6-1.43c28.17 22.28 55.87 14.19 55.87 14.19L264 66Z" fill="#3370FF"/></svg>