<svg viewBox="0 0 400 300" fill="none" xmlns="http://www.w3.org/2000/svg"><path d="M153.59 104.73c-2.15 2.69-8.21-.18-10.09 0-5.2.47-6.15-.72-6.15-.72-1.45 5.4-5.67 2.71-5.09.56.66-2.47 1.69-6.44 4.29-9.81 2.24-2.9 5.83-6.67 7.72-7.36 2.84-1 12.47.19 12.47.19" fill="#fff"/><path d="M153.59 104.73c-2.15 2.69-8.21-.18-10.09 0-5.2.47-6.15-.72-6.15-.72-1.45 5.4-5.67 2.71-5.09.56.66-2.47 1.69-6.44 4.29-9.81 2.24-2.9 5.83-6.67 7.72-7.36 2.84-1 12.47.19 12.47.19" stroke="#0C296E" stroke-width=".8" stroke-linecap="round" stroke-linejoin="round"/><path d="M137.81 104.28c-2-1.06-1-4.85 3.72-4.67l-3.72 4.67Z" fill="#fff"/><path d="M137.81 104.28c-2-1.06-1-4.85 3.72-4.67" stroke="#0C296E" stroke-width=".8" stroke-linecap="round" stroke-linejoin="round"/><path d="M141.2 99.65s1.5-1.77 2.2-2.47c.7-.7 3.27-3 4-.5.44 1.38-1.51 2.64-6.2 2.97Z" fill="#fff" stroke="#0C296E" stroke-width=".8" stroke-linecap="round" stroke-linejoin="round"/><path d="M170.85 108.22c8.91-10.5.74-22.46-1.18-22.25 5.87-.64 11.76 11.71 5.93 20.38 0 0-2.82 2.55-4.75 1.87Z" fill="#00D6B9"/><path d="M182.09 100c-1.53 3.28-3.52 5.9-13.43 6.09-10.29.2-14.93.36-14.93.36l4.65-8.61-3-11.4 15.71-.46s3.08-5.27 5.1-8.89c2.84-5.08 4.31-8.75 7.43-9.92M145.78 87.11a8.389 8.389 0 0 0-8 3.13c-2.72 3.29-4 4.81-3.94 6.45.095.588.25 1.164.46 1.72M137.27 104.14c.4.618.9 1.166 1.48 1.62 2 1.55 3.55.5 3.91-1" stroke="#0C296E" stroke-width=".8" stroke-linecap="round" stroke-linejoin="round"/><path d="M152.06 86c0 .14-.07.67.38.74 3 4.15 4 13.38.49 19.32-.44-.1-.67.72-.38.83 2.82.08 3.59.06 5 .05 3-3.32 4.66-13-.17-21.05-1.66.11-3.03 0-5.32.11Z" fill="#00D6B9" stroke="#0C296E" stroke-width=".8" stroke-linecap="round" stroke-linejoin="round"/><path d="M345.36 114.58a6.509 6.509 0 0 0-10.11-5.21 13.326 13.326 0 0 0-17.84-5.65 17.168 17.168 0 0 0-26.207 1.625 17.16 17.16 0 0 0-3.353 9.235h57.51Z" fill="#F0F1F2"/><path d="M38.38 247.84s14.74-17.49 36.08-16.76c24.52.83 29-3 36.3-9.76 7.3-6.76 24.34-25 53.44-10.35 9.52 4.78 22.58 9.32 43.38-1 27.18-13.55 108.38-57.68 163.82 37.83l-333.02.04Z" fill="#E0E2E4"/><path d="M248.17 227.72c-1.14-11.9-6.61-24.56-22.19-31.06-31-12.91-99.78-18.75-140.74-31.59-19.33-6.06-36.87-12.27-42.5-23.64-3.24-6.55-3.43 7.61-3.52 9.78-.33 8 1.94 12.4 12.34 19.34 22.75 15.19 126.75 29.28 140.87 33.73 23.61 7.44 53.54 17.55 56 35.76l-.26-12.32Z" stroke="#0C296E" stroke-width=".8" stroke-linecap="round" stroke-linejoin="round"/><path d="M165.69 197.51v23.92h-19.2v26.72H119v-26.72H63.79v-19.94l43.92-75.43h38.79v71.44l19.19.01Z" fill="#0C296E"/><path d="M144.21 197.51v23.92h-22.85v26.72H93.89v-26.72H38.66v-19.94l43.92-75.43h38.79v71.44l22.84.01Zm-50.32-46.25h-.3L67 197.51h26.89v-46.25Z" fill="#fff" stroke="#0C296E" stroke-width=".8" stroke-linecap="round" stroke-linejoin="round"/><path d="M142.66 197.67h10.64M141.87 220.33h10.64" stroke="#0C296E" stroke-width=".8" stroke-linecap="round" stroke-linejoin="round"/><path d="M200.33 127.29c-6.48 0-9.26-.35-15.19-.05-15.37 7-29.14 26.48-29.14 44.38v32.59c0 18.62 12.32 44.24 29.94 44.24 5.5 0 8.63.09 14.39.09a44.464 44.464 0 0 0 44.33-44.33v-32.59a44.458 44.458 0 0 0-44.33-44.33Zm17.16 76.39a17.214 17.214 0 0 1-17.16 17.16 17.214 17.214 0 0 1-17.16-17.16v-31.53A17.21 17.21 0 0 1 200.33 155a17.208 17.208 0 0 1 17.16 17.16v31.52Z" fill="#0C296E"/><path d="M182.53 127.12a44.458 44.458 0 0 0-44.33 44.33V204a44.458 44.458 0 0 0 44.33 44.33A44.46 44.46 0 0 0 226.86 204v-32.55a44.46 44.46 0 0 0-44.33-44.33Zm17.16 76.39a17.205 17.205 0 0 1-5.041 12.119 17.205 17.205 0 0 1-12.119 5.041 17.205 17.205 0 0 1-12.119-5.041 17.205 17.205 0 0 1-5.041-12.119V172a17.205 17.205 0 0 1 5.041-12.119 17.205 17.205 0 0 1 12.119-5.041 17.205 17.205 0 0 1 12.119 5.041A17.205 17.205 0 0 1 199.69 172v31.51Z" fill="#fff" stroke="#0C296E" stroke-width=".8" stroke-linecap="round" stroke-linejoin="round"/><path d="m95.44 72.14 4.65-15.49M102.08 74.57l6.98-8.01M88.5 71.05l-.98-11.56" stroke="#00D6B9" stroke-width="2" stroke-miterlimit="10"/><path d="m125.34 72.75 9.7-2.9-1.77 10.63-7.93-7.73Z" stroke="#0C296E" stroke-width=".8" stroke-linecap="round" stroke-linejoin="round"/><path d="M339.92 197.77v23.92h-21v26.72h-27.49v-26.72H236.2v-19.94l43.92-75.43h38.78v71.44l21.02.01Z" fill="#0C296E"/><path d="M316.61 197.51v23.92h-21v26.72h-27.49v-26.72h-55.23v-19.94l43.92-75.43h38.79v71.44l21.01.01Zm-48.49-46.25h-.3l-26.56 46.25h26.86v-46.25ZM82.89 123.45h45.15l-7.55-32.82-43.05-1.94-2.1 1.94 7.55 32.82Z" fill="#fff" stroke="#0C296E" stroke-width=".8" stroke-linecap="round" stroke-linejoin="round"/><path d="M85 121.5h45.72l-7.56-32.81H77.44L85 121.5Z" fill="#fff" stroke="#0C296E" stroke-width=".8" stroke-linecap="round" stroke-linejoin="round"/><path d="M89.08 118.32h36.12l-5.97-25.93H83.11l5.97 25.93Z" fill="#00D6B9"/><path d="M82.06 126.3h64.19v-4.96H82.06v4.96Z" fill="#0C296E"/><path d="M82.52 125.87h26.35v-4.19H82.52v4.19Z" fill="#F2F2F2"/><path d="m108.87 126.05 37.39.07" stroke="#fff" stroke-width=".8" stroke-linecap="round" stroke-linejoin="round"/><path d="m70.63 77.06-2.7-2.7 2.7-2.69-2.7-2.7-2.7 2.69-2.7-2.69-2.7 2.69 2.7 2.7-2.7 2.7 2.7 2.7 2.7-2.7 2.7 2.7 2.7-2.7Z" fill="#FFC60A"/><path d="m375.338 188.093-5.99-10.375-10.375 5.99 5.99 10.375 10.375-5.99Z" fill="#F0F1F2"/><path d="m251.43 65.85-11.12 6.04 11.82 7.56-.7-13.6Z" fill="#FFC60A"/><path d="M314.02 54.09h-59.6a4.72 4.72 0 0 0-4.72 4.72v27.68a4.72 4.72 0 0 0 4.72 4.72h59.6a4.72 4.72 0 0 0 4.72-4.72V58.81a4.72 4.72 0 0 0-4.72-4.72Z" fill="#FFC60A"/><path d="M309.42 64.36h-27.24v2.86h27.24v-2.86ZM309.42 71.72h-27.24v3.04h27.24v-3.04ZM297.35 78.9h-15.17v3.04h15.17V78.9Z" fill="#fff"/><path d="M265.55 81.72a8.48 8.48 0 1 0 0-16.96 8.48 8.48 0 0 0 0 16.96ZM271.32 67.05l-11.46 12.47" stroke="#0C296E" stroke-width=".8" stroke-linecap="round" stroke-linejoin="round"/><path d="m183.82 169.46-10.92 7.81c-5.27 3.95-10.71 5.88-17.75 4.19-7.45-1.79-8.55-5.15-7.26-12.68l20.11-12.4c5-2.88 19 .87 19 .87.4 5.27.59 9.39-3.18 12.21Z" fill="#0C296E"/><path d="m186.93 157.78-.51-13.28-25.53-1.2.55 15.37-7.72 4.33c-7.09 4-7.77 9.9-1.44 12.62 5.76 2.47 14.62 1 19.84-2.77l11.8-8.59c2.56-1.83 2.86-3.56 3.01-6.48Z" fill="#fff" stroke="#0C296E" stroke-width=".8" stroke-linecap="round" stroke-linejoin="round"/><path d="M153.08 163.41c5.8-4.28 18.92-.81 18.68 9.57" stroke="#0C296E" stroke-width=".8" stroke-linecap="round" stroke-linejoin="round"/><path d="M201.65 171.85 191.48 180c-5.23 4.18-9.37 5.5-17.12 5-8.21-.53-11.72-3.84-9-13.83l21.13-11.24c5-2.91 18.24.12 18.24.12.64 6.77.4 9.01-3.08 11.8Z" fill="#0C296E"/><path d="m204.73 160.55-.66-12.43-24.36-.71.38 13.51-9.68 4.61c-6.76 3.39-7.62 10.76-.57 12.89 6.19 1.87 15.56.87 20.76-3.12l11.31-8.7c2.38-1.81 2.67-3.39 2.82-6.05Z" fill="#fff" stroke="#0C296E" stroke-width=".8" stroke-linecap="round" stroke-linejoin="round"/><path d="M169.39 166.11c6.74-5.25 19.66 0 19.55 10.59" stroke="#0C296E" stroke-width=".8" stroke-linecap="round" stroke-linejoin="round"/><path d="M165.28 181.13c1 3 11.8 7.82 22.9 1.68" stroke="#fff" stroke-width=".8" stroke-linecap="round" stroke-linejoin="round"/><path d="M218.51 140.54c-2.09.67-12.11 2-12.11 2l.47 15.93s-4.38 3.1-13.27 2.83c-13-.41-14-3.46-14-3.46s-2.57 2.56-11 1.95c-8.67-.64-9-3.52-9-3.52l-1-30.66c.3-6.46 1.88-12.31 9.55-14.05l18.16-3.21 42.81.33s.4 8.42.42 12.47c.05 5.66 1.84 15.24-11.03 19.39Z" fill="#0C296E"/><path d="M223.48 112.87c-3.4 1.55-5.71 1.44-11.39 3.79a52.126 52.126 0 0 0-1.41 6.21l-7.33 2.13c-2.63 1.14-4.12 2.34-4.12 10.11l.69 21.58M195.68 112.26a62.608 62.608 0 0 0-11.15 2.59c-6.61 2.28-6.69 8.33-6.32 18.21.32 8.52 1.12 25.62 1.12 25.62" stroke="#fff" stroke-width=".6" stroke-miterlimit="10"/><path d="M179.15 154c4.86 4.42 21.24 4.12 27.56.25M159.41 151.87c2.5 4.21 14.87 5 19.74 2.16" stroke="#fff" stroke-width=".6" stroke-miterlimit="10" stroke-linecap="round"/><path d="m206.63 143.37-.27-8.21" stroke="#fff" stroke-width=".6" stroke-miterlimit="10"/><path d="M229.56 110.42s.08-16.1-.24-21.45c-.58-9.57-2.69-19.61-13.83-21.37-.16 0-28.41-1.67-28.41-1.67-7.86.58-7.51 6.32-7.35 15.48.12 7 .4 28.1.4 28.1s24.18 3.94 32 3.8c4.52-.07 13.03.27 17.43-2.89Z" fill="#fff"/><path d="M185.86 66.09s-2.56 2-2.57 7.58c0 5.2.28 34.001.41 36.191l-3.59-.68-.19-35.1c-.13-2.33 1.08-5.63 2.76-7a16.255 16.255 0 0 1 3.18-.99ZM216.25 64.84c-5.42 1.39-7.57 6.72-7.94 11.75l-1.47 17.1c-.18-2-.28-10.84 0-19.73.31-9.53 9.41-9.12 9.41-9.12Z" fill="#00D6B9"/><path d="M229.56 110.42s.08-16.1-.24-21.45c-.58-9.57-2.69-19.61-13.83-21.37-.16 0-28.41-1.67-28.41-1.67-7.86.58-7.51 6.32-7.35 15.48.12 7 .4 28.1.4 28.1s24.18 3.94 32 3.8c4.52-.07 13.03.27 17.43-2.89Z" stroke="#0C296E" stroke-width=".8" stroke-linecap="round" stroke-linejoin="round"/><path d="M205.833 65.627c3.698-3.944 3.498-10.14-.447-13.837-3.944-3.698-10.14-3.498-13.837.447-3.698 3.944-3.498 10.14.446 13.837 3.945 3.698 10.141 3.498 13.838-.447Z" fill="#fff" stroke="#0C296E" stroke-width=".8" stroke-linecap="round" stroke-linejoin="round"/><path d="M204.27 61.37c-.91-10.8-13.14-11.27-14.5-7.89a8.738 8.738 0 0 0-1.38 2.72c0 .24.41.51.54.53 0-.15.17-.73.26-1 3.32-1.86 12.19-.82 15.08 5.64Z" fill="#00D6B9"/><path d="M204.12 61.77a8.362 8.362 0 0 1-5.047 5 8.375 8.375 0 0 1-7.073-.68" fill="#fff"/><path d="M204.12 61.77a8.362 8.362 0 0 1-5.047 5 8.375 8.375 0 0 1-7.073-.68" stroke="#0C296E" stroke-width=".8" stroke-linecap="round" stroke-linejoin="round"/><path d="M205.723 61.212c.271-1.77-.648-3.377-2.051-3.592-1.403-.214-2.759 1.046-3.03 2.815-.27 1.769.648 3.377 2.051 3.591 1.403.214 2.76-1.046 3.03-2.814Z" fill="#0C296E" stroke="#0C296E" stroke-width=".8" stroke-miterlimit="10"/><path d="M206.836 61.454c.265-1.73-.632-3.303-2.002-3.513-1.37-.21-2.696 1.024-2.96 2.755-.265 1.73.632 3.303 2.002 3.512 1.371.21 2.696-1.023 2.96-2.754Z" fill="#fff" stroke="#0C296E" stroke-width=".8" stroke-linecap="round" stroke-linejoin="round"/><path d="M205.809 61.197c.162-1.059-.309-2.01-1.051-2.123-.743-.113-1.476.653-1.638 1.712-.162 1.06.309 2.01 1.051 2.124.743.113 1.476-.653 1.638-1.713Z" fill="#00D6B9"/><path d="M196.175 60.562a.741.741 0 1 0-1.421-.421.741.741 0 0 0 1.421.421ZM191.606 60.476a.74.74 0 1 0-1.417-.423.74.74 0 0 0 1.417.423Z" fill="#0C296E"/><path d="m186.58 82.58.04 12.12 13.05.84-.31-12.36-12.78-.6Z" fill="#00D6B9" stroke="#0C296E" stroke-width=".8" stroke-linecap="round" stroke-linejoin="round"/><path d="m189.22 82.83.18 5.15 2.18.07-.07 6.77" stroke="#0C296E" stroke-width=".8" stroke-linecap="round" stroke-linejoin="round"/><path d="M196.74 86.67c0 1-.51 1.78-1.24 1.76a1.85 1.85 0 0 1-1.5-1.78c-.12-1 .41-1.93 1.2-1.94.79-.01 1.49.89 1.54 1.96ZM196.75 91.78c0 .78-.4 1.37-1 1.36a1.442 1.442 0 0 1-1.17-1.38c-.1-.81.31-1.5.93-1.5.62 0 1.2.74 1.24 1.52Z" fill="#fff"/><path d="m199.57 83.2 1.38.15.22 12.07-1.69.03" fill="#0C296E"/><path d="m199.57 83.2 1.38.15.22 12.07-1.69.03" stroke="#0C296E" stroke-width=".8" stroke-miterlimit="10"/><path d="M230 111.34c-4.07 1.79-13.53 2.21-18.1 2.51-10.3.68-32.17-3.87-32.17-3.87v-4.42s17.26 3.46 32.48 3.1a76.412 76.412 0 0 0 17.66-1.77l.13 4.45Z" fill="#00D6B9" stroke="#0C296E" stroke-width=".8" stroke-linecap="round" stroke-linejoin="round"/><path d="m225.21 101.33-8.42 8.37c-5.27 5.1-8.37 6.58-12.61 6.33-6.24-.37-9.79-5-10-9.15-.54-12.15-.29-32-.29-32l18.64-.58.61 11.44 5.09-5.17" fill="#fff"/><path d="M204.93 116.08c11.28-2 15.54-18.89 8.13-28.93l.44-2c12.5 11.85 4.93 27.07-1.5 30.63-6.73 3.75-7.07.3-7.07.3Z" fill="#00D6B9"/><path d="m225.21 101.33-8.42 8.37c-5.27 5.1-8.37 6.58-12.61 6.33-6.24-.37-9.79-5-10-9.15-.54-12.15-.29-32-.29-32l18.64-.58.61 11.44 5.09-5.17" stroke="#0C296E" stroke-width=".8" stroke-linecap="round" stroke-linejoin="round"/><path d="m222.89 93.88-5.19-6.74 3.12-3.42 5.23 6.67-3.16 3.49Z" fill="#00D6B9"/><path d="m213.16 85.74.57 6.26" stroke="#0C296E" stroke-width=".8" stroke-linecap="round" stroke-linejoin="round"/><path d="M210.92 70.25c-.87.92-.71 5.73-.71 5.73l-15.63-.1s0-.88-.11-3.67c-.23-5.36 1.75-5.83 4.38-6.45 2.21-.52 2.35-3.59.59-6.51-1.42-2.34.73-3.73 2.43-2.87-.78-1 2-2.51 3.79-1.11-.26-.73 2.74-.94 3.72.53.45-.36 1.87.06 2.55 1.13a11.496 11.496 0 0 1-1.01 13.32Z" fill="#fff" stroke="#0C296E" stroke-width=".8" stroke-linecap="round" stroke-linejoin="round"/><path d="M210.92 70.25s-1.34 2-7 2.21l7-2.21Z" fill="#fff"/><path d="M210.92 70.25s-1.34 2-7 2.21" stroke="#0C296E" stroke-width=".8" stroke-linecap="round" stroke-linejoin="round"/><path d="M202 56.44c1.36 1.07 2.92 4.28 2.92 8.79L202 56.44Z" fill="#fff"/><path d="M202 56.44c1.36 1.07 2.92 4.28 2.92 8.79" stroke="#0C296E" stroke-width=".8" stroke-linecap="round" stroke-linejoin="round"/><path d="M205.36 55.07c2 1.24 3 5 3.14 8.82l-3.14-8.82Z" fill="#fff"/><path d="M205.36 55.07c2 1.24 3 5 3.14 8.82" stroke="#0C296E" stroke-width=".8" stroke-linecap="round" stroke-linejoin="round"/><path d="M209.16 55.6s2 2 2.15 7.62l-2.15-7.62Z" fill="#fff"/><path d="M209.16 55.6s2 2 2.15 7.62" stroke="#0C296E" stroke-width=".8" stroke-linecap="round" stroke-linejoin="round"/><path d="M207 142.81s17.92-.8 21.47-8.87" stroke="#fff" stroke-width=".8" stroke-linecap="round" stroke-linejoin="round"/><path d="m213.114 74.35-19.89.614.185 5.977 19.89-.615-.185-5.977Z" fill="#00D6B9" stroke="#0C296E" stroke-width=".8" stroke-linecap="round" stroke-linejoin="round"/><path d="M302.27 147.45v32.22c0 9.71 8.35 17.58 18.66 17.58 10.3 0 18.66-7.87 18.66-17.58v-24.94h-.14l-2.33-.46-.31-.06-31.37-6.12-.59-.11-2.57-.5-.01-.03Z" fill="#00D6B9"/><path d="M304.77 150c-.12 2.29 10.41 8.39 20.48 8.39s13.64-1.66 13.64-5.71c0-11.94-9.06-17.68-19.13-17.68-7.8 0-13.56 4.24-16.17 10.19-.76 1.7 1.28 2.81 1.18 4.81Z" fill="#fff" stroke="#0C296E" stroke-width=".8" stroke-miterlimit="10"/><path d="M302.28 148c.21 3.78 7 9 16.4 11.08 10.12 2.26 19.74.26 20.75-3.8.087-.327.134-.662.14-1-.027-.46-.081-.917-.16-1.37-.09-.67-.62-.55-.62-.55a2.49 2.49 0 0 1-.09.29 4.455 4.455 0 0 1-1.91 2.14c-3.28 2.11-10 2.79-17.33 1.16-6.41-1.43-11.57-4.39-14-7.28-1.26-1.46-1.82-2.9-1.51-4.11l-.07-.05a.597.597 0 0 0-.715.079.604.604 0 0 0-.145.211c-.24.86-.39 1.4-.63 2.37a2.802 2.802 0 0 0-.11.83Z" fill="#00D6B9"/><path d="M302.28 148c.21 3.78 7 9 16.4 11.08 10.12 2.26 19.74.26 20.75-3.8.087-.326.134-.662.14-1" stroke="#0C296E" stroke-width=".8" stroke-linecap="round" stroke-linejoin="round"/><path d="M319.83 195.79a7.88 7.88 0 1 0 0-15.76 7.88 7.88 0 0 0 0 15.76Z" fill="#00D6B9" stroke="#0C296E" stroke-width=".8" stroke-linecap="round" stroke-linejoin="round"/><path d="M324.44 184h8.41v9.22h-8.41a4.212 4.212 0 0 1-4.21-4.21v-.8a4.212 4.212 0 0 1 4.21-4.21Z" fill="#00D6B9" stroke="#0C296E" stroke-width=".8" stroke-linecap="round" stroke-linejoin="round"/><path d="M334.79 183.33v13.4H351v-29.28l-9.37-.29c-5.16 0-6.82 16.17-6.82 16.17" fill="#fff"/><path d="M334.79 183.33v13.4H351v-29.28l-9.37-.29c-5.16 0-6.82 16.17-6.82 16.17" stroke="#0C296E" stroke-width=".8" stroke-linecap="round" stroke-linejoin="round"/><path d="M336.31 175.08s.19 4.94 6.71 7.46" stroke="#0C296E" stroke-width=".8" stroke-linecap="round" stroke-linejoin="round"/><path d="M351.28 196.73v-29.57h-9.68v29.57h9.68Z" fill="#E0E2E4" stroke="#0C296E" stroke-width=".8" stroke-linecap="round" stroke-linejoin="round"/><path d="M344.29 167.16v29.57" stroke="#0C296E" stroke-width=".8" stroke-miterlimit="10"/><path d="M351.28 167.16h-6.99v29.57h6.99v-29.57Z" fill="#0C296E" stroke="#0C296E" stroke-width=".8" stroke-linecap="round" stroke-linejoin="round"/><path d="M325 183.33v13.4h16.19v-29.28l-9.37-.29c-5.16 0-6.82 16.17-6.82 16.17Z" fill="#fff"/><path d="M325 183.33v13.4h16.19v-29.28l-9.37-.29c-5.16 0-6.82 16.17-6.82 16.17" stroke="#0C296E" stroke-width=".8" stroke-linecap="round" stroke-linejoin="round"/><path d="M326.54 175.08s.19 4.94 6.71 7.46" stroke="#0C296E" stroke-width=".8" stroke-linecap="round" stroke-linejoin="round"/><path d="M341.51 196.73v-29.57h-9.67v29.57h9.67Z" fill="#E0E2E4" stroke="#0C296E" stroke-width=".8" stroke-linecap="round" stroke-linejoin="round"/><path d="M334.52 167.16v29.57" stroke="#0C296E" stroke-width=".8" stroke-miterlimit="10"/><path d="M341.51 167.16h-6.99v29.57h6.99v-29.57Z" fill="#0C296E" stroke="#0C296E" stroke-width=".8" stroke-linecap="round" stroke-linejoin="round"/><path d="M310.14 165.7h-8.07v19.5h8.07v-19.5Z" fill="#00D6B9" stroke="#0C296E" stroke-width=".8" stroke-linecap="round" stroke-linejoin="round"/><path d="M312.42 171.96h-13v-7a5.94 5.94 0 0 1 5.94-5.94h1.12a5.94 5.94 0 0 1 5.94 5.94v7ZM311.46 198.22h.81a2.47 2.47 0 0 0 2.47-2.47v-5.87a2.47 2.47 0 0 0-2.47-2.47h-.81a2.47 2.47 0 0 0-2.47 2.47v5.87a2.47 2.47 0 0 0 2.47 2.47Z" fill="#fff" stroke="#0C296E" stroke-width=".8" stroke-linecap="round" stroke-linejoin="round"/><path d="M312.42 191.55v3.58a6.5 6.5 0 0 1-13 0v-10.08h13v2.44a5.064 5.064 0 0 0 0 4.06Z" fill="#fff" stroke="#0C296E" stroke-width=".8" stroke-linecap="round" stroke-linejoin="round"/><path d="m325.824 145.296-2.489.077a.63.63 0 0 0-.61.649l.003.12a.63.63 0 0 0 .649.61l2.489-.076a.63.63 0 0 0 .61-.65l-.003-.12a.63.63 0 0 0-.649-.61ZM333.722 145.062l-1.689.052a.63.63 0 0 0-.61.649l.003.12a.632.632 0 0 0 .65.611l1.689-.053a.629.629 0 0 0 .61-.649l-.004-.12a.63.63 0 0 0-.649-.61Z" fill="#0C296E"/><path d="m335.98 134.3 4.98-2.63-2.91 7.01 5.04-2.66M343.48 129.26l6.96-3.67-4.07 9.79 7.05-3.72M352.25 123.23l8.79-4.63-5.13 12.36 8.9-4.69" stroke="#00D6B9" stroke-width="1.6" stroke-linecap="round" stroke-linejoin="round"/><path d="M316.61 197.51h23.43" stroke="#fff" stroke-width=".8" stroke-linecap="round" stroke-linejoin="round"/><path d="M71.18 118.49C56 120.13 45.9 124 42.05 129.1a20.09 20.09 0 0 0-3.75 12c0 6.78.14 9 .57 14.68 0-9 14.46-14.71 32.65-16.55-.15-7.56-.27-13.1-.34-20.74Z" fill="#3370FF"/><path d="M65 125.87s-13.37.75-20.34 7.93M65.16 131.95c-5.42.24-11.31 2.6-14 4.7" stroke="#0C296E" stroke-width=".8" stroke-linecap="round" stroke-linejoin="round"/><path d="M262.39 113.99a5.31 5.31 0 1 0 0-10.62 5.31 5.31 0 1 0 0 10.62Z" fill="#00D6B9"/><path d="M299.47 248.59c-6.09 0-12 0-18.35-.08-6.62 0-13.46-.09-20.8-.09-9.69 0-12.73-4.63-12.73-13 0-.72.05-13.18.05-13.18.39 4.05 3.06 10.15 11.14 13.18 9.18 3.44 60.11 13.15 60.11 13.15-2.8.01-16.66.02-19.42.02Z" fill="#3370FF"/></svg>