<svg width="250" height="250" viewBox="0 0 250 250" fill="none" xmlns="http://www.w3.org/2000/svg">
<path d="M125.329 0C67.7098 0 21 55.9645 21 125C21 194.035 67.7098 250 125.329 250C182.949 250 229.659 194.035 229.659 125C229.659 55.9645 182.949 0 125.329 0ZM86.7551 33.2031C43.4928 33.2031 191.247 119.841 191.247 63.4764C191.247 7.11142 82.0671 22.9688 125.329 22.9688C168.592 22.9688 53.5521 50.5684 53.5521 106.933C53.5521 163.298 130.018 33.2031 86.7551 33.2031Z" fill="#DE2910"/>
<path d="M191.414 121.273L160.42 88.1222C158.577 86.0926 155.394 85.9235 153.383 87.9531C151.373 89.8136 151.205 93.0271 153.216 95.0567L180.859 124.824L153.048 154.423C151.205 156.453 151.205 159.666 153.216 161.527C154.221 162.372 155.394 162.88 156.734 162.88C158.074 162.88 159.415 162.372 160.42 161.357L191.414 128.207C193.257 126.347 193.257 123.302 191.414 121.273Z" fill="#FFDE00"/>
<path d="M98.2469 87.953C96.2364 86.0926 93.0533 86.0926 91.2104 88.1222L60.0489 121.273C58.206 123.302 58.206 126.347 60.0489 128.207L91.0429 161.357C92.0481 162.372 93.3884 162.88 94.7286 162.88C95.9014 162.88 97.2417 162.372 98.2469 161.526C100.257 159.666 100.425 156.452 98.4144 154.423L70.6036 124.824L98.4144 95.2258C100.257 93.1962 100.257 89.9826 98.2469 87.953Z" fill="#FFDE00"/>
<path d="M133.82 71.0397C131.139 70.7014 128.459 72.5619 128.124 75.268L113.38 172.689C113.045 175.396 114.888 178.102 117.569 178.44C117.904 178.44 118.071 178.44 118.407 178.44C120.92 178.44 122.93 176.58 123.433 174.212L138.176 76.7902C138.343 74.0841 136.5 71.5471 133.82 71.0397Z" fill="#FFDE00"/>
</svg>
