<?xml version="1.0" encoding="UTF-8"?>
<svg width="10px" height="8px" viewBox="0 0 10 8" version="1.1" xmlns="http://www.w3.org/2000/svg" xmlns:xlink="http://www.w3.org/1999/xlink">
    <title>不可见</title>
    <defs>
        <filter color-interpolation-filters="auto" id="filter-1">
            <feColorMatrix in="SourceGraphic" type="matrix" values="0 0 0 0 0.000000 0 0 0 0 0.000000 0 0 0 0 0.000000 0 0 0 1.000000 0"></feColorMatrix>
        </filter>
    </defs>
    <g id="不可见" stroke="none" stroke-width="1" fill="none" fill-rule="evenodd">
        <g filter="url(#filter-1)" id="编组备份">
            <g>
                <path d="M9.1842051,2.45597759 L9.39094227,2.757187 C9.42312081,2.80617065 9.45416622,2.85444948 9.48408709,2.90187972 L9.65018616,3.17512793 C9.67564308,3.21858872 9.69999258,3.26091337 9.72324323,3.3019581 L9.9030614,3.63292111 C10.0207752,3.86179514 10.032234,4.14637396 9.93222941,4.38735772 C9.01135356,6.61676031 7.07688925,8.02391175 4.96324999,7.99969228 C4.19312891,7.99086772 3.44983697,7.79282298 2.77333242,7.43578322 L3.52216459,6.68631516 C3.92094984,6.85867327 4.34175345,6.96314504 4.7728032,6.99187689 L4.9747079,6.99975792 C6.59263192,7.01829716 8.1104589,5.96248411 8.91216327,4.22479985 L8.99,4.046 L8.89455223,3.86823642 C8.57932882,3.29698805 8.23026034,2.78854477 7.84242558,2.36428749 L8.53995322,1.66811701 C8.78464602,1.92906706 8.99903118,2.19782061 9.1842051,2.45597759 Z M4.99762658,0 C6.13192391,0 7.06050116,0.421942081 7.79967782,0.991945738 L7.09778406,1.6935558 C6.54173629,1.29214952 5.91792165,1.04837475 5.21615693,1.00647402 L5.006,1 L4.82442357,1.01114542 C3.27222301,1.14108103 1.8547358,2.21012855 1.07818562,3.88355498 L1.024,4.004 L1.07827188,4.13342348 C1.44993392,4.97792746 1.99051391,5.66880043 2.6318266,6.16055409 L1.91991366,6.87260509 C1.12533255,6.23209347 0.474117459,5.34424656 0.0546900251,4.27594814 C-0.0182300084,4.1027789 -0.0182300084,3.90054629 0.0546900251,3.72737706 C0.97869102,1.50160739 2.88502904,0.0641816062 4.99762658,0 Z" id="形状结合" fill="#000000" fill-rule="nonzero"></path>
                <path d="M5.36672977,2.3989389 C5.73520483,2.3989389 6.0697086,2.56958602 6.31555887,2.84717185 L4.24593107,4.91845921 C4.08843604,4.65382202 4,4.33484154 4,4.00105711 C4,3.11583534 4.61148657,2.3989389 5.36672977,2.3989389 Z" id="形状结合" fill="#2C2C2C" fill-rule="nonzero"></path>
                <rect id="矩形" fill="#000000" transform="translate(4.870145, 4.000000) rotate(-315.000000) translate(-4.870145, -4.000000) " x="4.37014491" y="-1" width="1" height="10"></rect>
            </g>
        </g>
    </g>
</svg>