<?xml version="1.0" encoding="UTF-8"?>
<svg width="16px" height="16px" viewBox="0 0 16 16" version="1.1" xmlns="http://www.w3.org/2000/svg" xmlns:xlink="http://www.w3.org/1999/xlink">
    <title>元数据建模</title>
    <g id="元数据建模" stroke="none" stroke-width="1" fill="none" fill-rule="evenodd">
        <rect id="矩形" fill="#000000" fill-rule="nonzero" opacity="0" x="0" y="0" width="16" height="16"></rect>
        <rect id="矩形" fill="#000000" fill-rule="nonzero" opacity="0" x="2" y="2" width="11.9882927" height="11.9882927"></rect>
        <g id="编组" transform="translate(3.000000, 2.000000)" fill="#FFFFFF" fill-rule="nonzero">
            <path d="M1.09798736e-07,3.5125201 L5.0703126,5.67619612 L5.0703126,12 L0.612562707,10.0352866 C0.239915251,9.87092574 -0.000187442952,9.50400233 1.09798736e-07,9.09917252 L1.09798736e-07,3.5125201 Z M11,3.38181223 L11,9.09917252 C11.0000517,9.50387858 10.759971,9.87063468 10.3874375,10.0349453 L6.10156258,11.9242372 L6.10156258,5.62261613 L11,3.38147096 L11,3.38181223 Z M5.91868759,0.0881785925 L10.3874375,2.05835235 C10.5428125,2.12660712 10.6751562,2.23069562 10.7765625,2.3576495 L5.54365635,4.76362993 L0.150218956,2.46207929 C0.256781448,2.28734709 0.416625195,2.14469464 0.612562707,2.05835235 L5.08131261,0.0881785925 C5.3478766,-0.0293928642 5.65212361,-0.0293928642 5.91868759,0.0881785925 L5.91868759,0.0881785925 Z" id="形状"></path>
        </g>
    </g>
</svg>