<?xml version="1.0" encoding="UTF-8"?>
<svg width="10px" height="10px" viewBox="0 0 10 10" version="1.1" xmlns="http://www.w3.org/2000/svg" xmlns:xlink="http://www.w3.org/1999/xlink">
    <title>关 闭</title>
    <g id="页面-1" stroke="none" stroke-width="1" fill="none" fill-rule="evenodd">
        <g id="精简模式" transform="translate(-297.000000, -83.000000)" fill="#FFFFFF" fill-rule="nonzero">
            <g id="编组-16" transform="translate(233.000000, 80.000000)">
                <g id="关-闭" transform="translate(64.000000, 3.000000)">
                    <path d="M0,5.0000293 C0,7.76145508 2.23859361,10 5,10 C7.76151477,10 10,7.76145508 10,5.0000293 C10,2.23860352 7.76151477,0 5,0 C2.23858376,0 0,2.23860352 0,5.0000293 Z" id="路径" opacity="0.100000001"></path>
                    <path d="M7.8847365,2.11524881 C8.03842134,2.26917865 8.03842134,2.53838445 7.88473548,2.69236703 L5.576,5 L7.80643702,7.22973389 C7.95548675,7.37901079 7.95548675,7.6401259 7.80643702,7.78934902 C7.6570755,7.93830841 7.39586121,7.93830841 7.2464467,7.78934902 L5.016,5.56 L2.69234213,7.88479075 C2.53839543,8.03840308 2.26915912,8.03840308 2.11526439,7.88479075 C1.96157854,7.73091365 1.96157854,7.46160237 2.11526439,7.30767253 L4.439,4.983 L2.20835972,2.75439526 C2.05925802,2.60506562 2.05925802,2.34400326 2.20835972,2.19478014 C2.35772328,2.04576801 2.61893757,2.04576801 2.76829909,2.19478014 L4.999,4.423 L7.3076068,2.11524881 C7.4615535,1.96158373 7.73084279,1.96158373 7.8847365,2.11524881 Z" id="形状结合"></path>
                </g>
            </g>
        </g>
    </g>
</svg>