<?xml version="1.0" encoding="UTF-8"?>
<svg width="16px" height="16px" viewBox="0 0 16 16" version="1.1" xmlns="http://www.w3.org/2000/svg" xmlns:xlink="http://www.w3.org/1999/xlink">
    <title>关系</title>
    <g id="关系" stroke="none" stroke-width="1" fill="none" fill-rule="evenodd">
        <rect id="矩形" fill="#000000" fill-rule="nonzero" opacity="0" x="0" y="0" width="16" height="16"></rect>
        <rect id="矩形" fill="#000000" fill-rule="nonzero" opacity="0" x="2" y="2" width="12" height="12"></rect>
        <g id="编组" transform="translate(2.000000, 2.000000)" fill="#000000" fill-rule="nonzero">
            <path d="M8.99976131,7.02419927e-08 C10.0198417,0.000141752111 10.912195,0.646153012 11.1740578,1.5740627 C11.4359206,2.5019724 11.0017676,3.47959254 10.1162065,3.95611913 C9.23064529,4.43264571 8.11526711,4.28883896 7.39849062,3.60572149 L5.83097038,4.71186191 C5.93597173,4.99351477 5.9952225,5.29528569 5.99972256,5.60940982 L8.57525582,6.41766175 C9.09675727,5.69741808 10.0988264,5.44337325 10.9341438,5.81963587 C11.7694612,6.19589849 12.1878182,7.08976394 11.9189635,7.92381047 C11.6501087,8.757857 10.7745741,9.28225671 9.85794001,9.15825639 C8.94130591,9.03425608 8.25813826,8.29899843 8.24975162,7.42744727 L8.24900161,7.43132971 L5.79946997,6.66331387 C5.6322219,7.07060686 5.36704294,7.43591969 5.02470996,7.73062998 L6.18572496,9.18760117 C6.89695828,9.10255963 7.57270047,9.50310517 7.79847239,10.1435557 C8.0242443,10.7840062 7.73691972,11.4852906 7.11273456,11.8172629 C6.48854941,12.1492353 5.70202693,12.0190756 5.23559542,11.5066197 C4.76916392,10.9941638 4.75323845,10.2426953 5.1975872,9.71314142 L4.06282254,8.28828853 C2.64165573,8.79482244 1.04253231,8.22120187 0.340071723,6.95290289 C-0.362388861,5.68460391 0.0537114428,4.12226547 1.30875102,3.31578732 C2.56379059,2.50930917 4.26131895,2.71344714 5.26058801,3.79101942 L6.8307333,2.68276129 C6.64317671,2.04519159 6.78296687,1.36175845 7.20861621,0.835294287 C7.63426556,0.308830121 8.29686354,-0.000170091066 8.99976131,7.02419927e-08 Z M6.3747274,10.2355051 C6.16761794,10.2355051 5.99972255,10.3935255 5.99972255,10.5884536 C5.99972255,10.7833816 6.16761794,10.941402 6.3747274,10.941402 C6.58183685,10.941402 6.74973224,10.7833816 6.74973224,10.5884536 C6.74973224,10.3935255 6.58183685,10.2355051 6.3747274,10.2355051 Z M10.1247758,6.70602064 C9.85679585,6.70598203 9.60915456,6.84051678 9.47515272,7.05893789 C9.34115087,7.27735901 9.34115087,7.54647607 9.47515272,7.76489718 C9.60915456,7.9833183 9.85679585,8.11785304 10.1247758,8.11781444 C10.5389499,8.11775475 10.8746707,7.80173143 10.8746707,7.41191754 C10.8746707,7.02210365 10.5389499,6.70608032 10.1247758,6.70602064 L10.1247758,6.70602064 Z M2.9996838,3.88243306 C2.32975893,3.88237201 1.71069507,4.21871663 1.3757139,4.76475485 C1.04073274,5.31079307 1.04073274,5.98355752 1.3757139,6.52959574 C1.71069507,7.07563396 2.32975893,7.41197858 2.9996838,7.41191753 C4.03516018,7.41182317 4.87452648,6.6217488 4.87452648,5.6471753 C4.87452648,4.6726018 4.03516018,3.88252743 2.9996838,3.88243306 L2.9996838,3.88243306 Z M8.99976131,1.05884548 C8.37843295,1.05884548 7.87474678,1.53290669 7.87474678,2.11769082 C7.87474678,2.70247496 8.37843295,3.17653616 8.99976131,3.17653616 C9.62108968,3.17653616 10.1247758,2.70247496 10.1247758,2.11769082 C10.1247758,1.53290669 9.62108968,1.05884548 8.99976131,1.05884548 Z" id="形状"></path>
        </g>
    </g>
</svg>