<?xml version="1.0" encoding="UTF-8"?>
<svg width="10px" height="10px" viewBox="0 0 10 10" version="1.1" xmlns="http://www.w3.org/2000/svg" xmlns:xlink="http://www.w3.org/1999/xlink">
    <title>减</title>
    <g id="页面-1" stroke="none" stroke-width="1" fill="none" fill-rule="evenodd">
        <g id="精简模式" transform="translate(-898.000000, -16.000000)" fill="#FFFFFF" fill-rule="nonzero">
            <g id="编组-3" transform="translate(441.000000, 11.000000)">
                <g id="缩放比例" transform="translate(452.000000, 0.000000)">
                    <g id="减" transform="translate(5.000000, 5.000000)">
                        <path d="M0,5.0000293 C0,7.76145508 2.23859361,10 5,10 C7.76151477,10 10,7.76145508 10,5.0000293 C10,2.23860352 7.76151477,0 5,0 C2.23858376,0 0,2.23860352 0,5.0000293 Z" id="路径" opacity="0.099999994"></path>
                        <path d="M2.20836176,2.19478014 C2.35772328,2.04576801 2.61893757,2.04576801 2.76829909,2.19478014 L7.80643702,7.22973389 C7.95548675,7.37901079 7.95548675,7.6401259 7.80643702,7.78934902 C7.6570755,7.93830841 7.39586121,7.93830841 7.2464467,7.78934902 L2.20835972,2.75439526 C2.05925802,2.60506562 2.05925802,2.34400326 2.20835972,2.19478014 L2.20836176,2.19478014 Z" id="形状结合" transform="translate(5.007379, 4.992045) rotate(-45.000000) translate(-5.007379, -4.992045) "></path>
                    </g>
                </g>
            </g>
        </g>
    </g>
</svg>