<?xml version="1.0" encoding="UTF-8"?>
<svg width="16px" height="16px" viewBox="0 0 16 16" version="1.1" xmlns="http://www.w3.org/2000/svg" xmlns:xlink="http://www.w3.org/1999/xlink">
    <title>删除</title>
    <g id="删除" stroke="none" stroke-width="1" fill="none" fill-rule="evenodd">
        <rect id="矩形" fill="#000000" fill-rule="nonzero" opacity="0" x="0" y="0" width="16" height="16"></rect>
        <rect id="矩形" fill="#000000" fill-rule="nonzero" opacity="0" x="2" y="2" width="12" height="12"></rect>
        <g id="编组" transform="translate(2.000000, 2.000000)" fill="#000000" fill-rule="nonzero">
            <path d="M6,0 C9.31376471,0 12,2.68623529 12,6 C12,9.31376471 9.31376471,12 6,12 C2.68623529,12 0,9.31376471 0,6 C0,2.68623529 2.68623529,0 6,0 Z M6,1.05882353 C3.27105883,1.05882353 1.05882353,3.27105882 1.05882353,6 C1.05882353,8.72894118 3.27105882,10.9411765 6,10.9411765 C8.72894118,10.9411765 10.9411765,8.72894118 10.9411765,6 C10.9411765,3.27105882 8.72894118,1.05882353 6,1.05882353 Z M6.52941176,5.47058824 L9.17647059,5.47058824 L9.17647059,6.52941176 L6.52941176,6.52941176 L5.47058824,6.52905883 L2.82352941,6.52941176 L2.82352941,5.47058824 L5.47058824,5.4702353 L6.52941176,5.47058824 Z" id="形状"></path>
        </g>
    </g>
</svg>