<?xml version="1.0" encoding="UTF-8"?>
<svg width="16px" height="16px" viewBox="0 0 16 16" version="1.1" xmlns="http://www.w3.org/2000/svg" xmlns:xlink="http://www.w3.org/1999/xlink">
    <title>剪切</title>
    <g id="剪切" stroke="none" stroke-width="1" fill="none" fill-rule="evenodd">
        <rect id="矩形" fill="#000000" fill-rule="nonzero" opacity="0" x="0" y="0" width="16" height="16"></rect>
        <rect id="矩形" fill="#000000" fill-rule="nonzero" opacity="0" x="2" y="2" width="12" height="12"></rect>
        <g id="编组" transform="translate(2.000000, 2.000000)" fill="#000000" fill-rule="nonzero">
            <path d="M2.14295796,0.00426886027 L6.04101368,5.42690105 L6.04491798,5.42185602 L6.7625288,6.41960792 L6.75862451,6.42504102 L8.02166639,8.18304029 C8.78890328,7.35231329 10.0523281,7.20498063 10.9921715,7.83663865 C11.932015,8.46829667 12.2650862,9.68861599 11.7752729,10.7057962 C11.2854596,11.7229764 10.1203509,12.2305237 9.03592406,11.8991176 C7.9514972,11.5677114 7.27450853,10.4972102 7.44422004,9.38220535 L6.03203378,7.41697173 L4.56245429,9.42450601 C4.5714342,9.49436028 4.57729065,9.5653788 4.58002366,9.63717346 L4.58158537,9.72255092 C4.58135065,10.8213817 3.7916124,11.7632734 2.70427177,11.9615536 C1.61693114,12.1598339 0.542254408,11.5579246 0.149621236,10.5307346 C-0.243011936,9.50354456 0.158434026,8.34417652 1.10391205,7.77476147 C2.04939008,7.20534641 3.26911357,7.38836356 4.00335815,8.20981776 L5.31442297,6.41883176 L1.18991769,0.681079187 L2.14295796,0.00426886027 Z M9.70949641,8.60992753 C9.30467344,8.60241145 8.92732329,8.81278009 8.72269746,9.1600573 C8.51807163,9.50733452 8.51807163,9.93737922 8.72269746,10.2846564 C8.92732329,10.6319337 9.30467344,10.8423023 9.70949641,10.8347862 C10.3194488,10.8234616 10.8079552,10.3287423 10.8079552,9.72235687 C10.8079552,9.11597147 10.3194488,8.62125213 9.70949641,8.60992753 L9.70949641,8.60992753 Z M2.29132147,8.60992753 C1.8864985,8.60241145 1.50914835,8.81278009 1.30452252,9.1600573 C1.09989669,9.50733452 1.09989669,9.93737922 1.30452252,10.2846564 C1.50914835,10.6319337 1.8864985,10.8423023 2.29132147,10.8347862 C2.90127391,10.8234616 3.38978027,10.3287423 3.38978027,9.72235687 C3.38978027,9.11597147 2.90127391,8.62125213 2.29132147,8.60992753 L2.29132147,8.60992753 Z M10.0175459,0 L10.9643393,0.685348047 L7.24744319,5.75870885 L6.52944194,4.76056888 L10.0175459,0.000388073245 L10.0175459,0 Z" id="形状"></path>
        </g>
    </g>
</svg>