<?xml version="1.0" encoding="UTF-8"?>
<svg width="10px" height="8px" viewBox="0 0 10 8" version="1.1" xmlns="http://www.w3.org/2000/svg" xmlns:xlink="http://www.w3.org/1999/xlink">
    <title>可见</title>
    <defs>
        <filter color-interpolation-filters="auto" id="filter-1">
            <feColorMatrix in="SourceGraphic" type="matrix" values="0 0 0 0 0.000000 0 0 0 0 0.000000 0 0 0 0 0.000000 0 0 0 1.000000 0"></feColorMatrix>
        </filter>
    </defs>
    <g id="可见" stroke="none" stroke-width="1" fill="none" fill-rule="evenodd">
        <g filter="url(#filter-1)" id="编组">
            <g>
                <path d="M4.99762658,0 C7.01068995,0 8.37580891,1.32896614 9.1842051,2.45597759 L9.39094227,2.757187 C9.42312081,2.80617065 9.45416622,2.85444948 9.48408709,2.90187972 L9.65018616,3.17512793 C9.67564308,3.21858872 9.69999258,3.26091337 9.72324323,3.3019581 L9.9030614,3.63292111 C10.0207752,3.86179514 10.032234,4.14637396 9.93222941,4.38735772 C9.01135356,6.61676031 7.07688925,8.02391175 4.96324999,7.99969228 C2.84961074,7.9754728 0.938064145,6.52593728 0.0546900251,4.27594814 C-0.0182300084,4.1027789 -0.0182300084,3.90054629 0.0546900251,3.72737706 C0.97869102,1.50160739 2.88502904,0.0641816062 4.99762658,0 Z M5.006,1 L4.82442357,1.01114542 C3.27222301,1.14108103 1.8547358,2.21012855 1.07818562,3.88355498 L1.024,4.004 L1.07827188,4.13342348 C1.81888028,5.81626073 3.23023239,6.88905603 4.7728032,6.99187689 L4.9747079,6.99975792 C6.59263192,7.01829716 8.1104589,5.96248411 8.91216327,4.22479985 L8.99,4.046 L8.89455223,3.86823642 C7.98763694,2.2247231 6.80057084,1.10107566 5.21615693,1.00647402 L5.006,1 Z" id="形状" fill="#000000" fill-rule="nonzero"></path>
                <path d="M4.99658486,2.3989389 C4.24134166,2.3989389 3.62985509,3.11583534 3.62985509,4.00105711 C3.62985509,4.57384767 3.89028378,5.10304318 4.31321998,5.38883297 C4.73615617,5.67462277 5.25701355,5.67462277 5.67994975,5.38883297 C6.10288594,5.10304318 6.36331596,4.57384767 6.36331596,4.00105711 C6.36435635,3.11583534 5.75182807,2.3989389 4.99658486,2.3989389 L4.99658486,2.3989389 Z" id="路径" fill="#2C2C2C" fill-rule="nonzero"></path>
            </g>
        </g>
    </g>
</svg>