<?xml version="1.0" encoding="UTF-8"?>
<svg width="32px" height="22px" viewBox="0 0 32 22" version="1.1" xmlns="http://www.w3.org/2000/svg" xmlns:xlink="http://www.w3.org/1999/xlink">
    <title>导入</title>
    <defs>
        <filter color-interpolation-filters="auto" id="filter-1">
            <feColorMatrix in="SourceGraphic" type="matrix" values="0 0 0 0 1.000000 0 0 0 0 1.000000 0 0 0 0 1.000000 0 0 0 1.000000 0"></feColorMatrix>
        </filter>
    </defs>
    <g id="页面-1" stroke="none" stroke-width="1" fill="none" fill-rule="evenodd">
        <g id="精简模式" transform="translate(-1068.000000, -10.000000)">
            <g id="编组-3" transform="translate(441.000000, 11.000000)">
                <g id="导入" transform="translate(628.000000, 0.000000)">
                    <rect id="矩形" stroke="#FFFFFF" stroke-width="0.5" fill="#FFFFFF" opacity="0.100000001" x="-0.25" y="-0.25" width="30.5" height="20.5" rx="2"></rect>
                    <g filter="url(#filter-1)" id="编组" opacity="0.649999976">
                        <g transform="translate(9.000000, 4.000000)">
                            <path d="M9.6,3.92564491 L10.8,3.92564491 C11.4627417,3.92564491 12,4.45556584 12,5.10925644 L12,11.8163885 C12,12.4700791 11.4627417,13 10.8,13 L1.2,13 C0.5372583,13 0,12.4700791 0,11.8163885 L0,5.10925644 C0,4.45556584 0.5372583,3.92564491 1.2,3.92564491 L2.4,3.92564491 L2.4,5.10925644 L1.2,5.10925644 L1.2,11.8163885 L10.8,11.8163885 L10.8,5.10925644 L9.6,5.10925644 L9.6,3.92564491 Z M6.69759999,0 L6.6984,6.42582701 L8.08599999,5.056783 L8.934,5.89359635 L6.10599999,8.68336874 L3.27759999,5.89399089 L4.12599999,5.056783 L5.49800001,6.41004551 L5.49800001,0 L6.69800001,0 L6.69759999,0 Z" id="形状" fill="#000000" fill-rule="nonzero"></path>
                        </g>
                    </g>
                </g>
            </g>
        </g>
    </g>
</svg>