<?xml version="1.0" encoding="UTF-8"?>
<svg width="16px" height="16px" viewBox="0 0 16 16" version="1.1" xmlns="http://www.w3.org/2000/svg" xmlns:xlink="http://www.w3.org/1999/xlink">
    <title>展开</title>
    <g id="展开" stroke="none" stroke-width="1" fill="none" fill-rule="evenodd">
        <g id="doubleleft" transform="translate(8.000000, 8.000000) rotate(-90.000000) translate(-8.000000, -8.000000) translate(0.000000, -0.000000)">
            <rect id="矩形" fill="#000000" fill-rule="nonzero" opacity="0" x="0" y="0" width="16" height="16"></rect>
            <path d="M4.2640625,8 L8.4109375,2.7015625 C8.475,2.6203125 8.4171875,2.5 8.3125,2.5 L7.1046875,2.5 C7.028125,2.5 6.9546875,2.5359375 6.9078125,2.5953125 L2.91875,7.6921875 C2.7765625,7.8734375 2.7765625,8.128125 2.91875,8.309375 L6.9078125,13.4046875 C6.9546875,13.465625 7.028125,13.5 7.1046875,13.5 L8.3125,13.5 C8.4171875,13.5 8.475,13.3796875 8.4109375,13.2984375 L4.2640625,8 Z M9.0140625,8 L13.1609375,2.7015625 C13.225,2.6203125 13.1671875,2.5 13.0625,2.5 L11.8546875,2.5 C11.778125,2.5 11.7046875,2.5359375 11.6578125,2.5953125 L7.66875,7.6921875 C7.5265625,7.8734375 7.5265625,8.128125 7.66875,8.309375 L11.6578125,13.4046875 C11.7046875,13.465625 11.778125,13.5 11.8546875,13.5 L13.0625,13.5 C13.1671875,13.5 13.225,13.3796875 13.1609375,13.2984375 L9.0140625,8 Z" id="形状" fill="#1890FF"></path>
        </g>
    </g>
</svg>