<?xml version="1.0" encoding="UTF-8"?>
<svg width="16px" height="16px" viewBox="0 0 16 16" version="1.1" xmlns="http://www.w3.org/2000/svg" xmlns:xlink="http://www.w3.org/1999/xlink">
    <title>拷贝</title>
    <g id="拷贝" stroke="none" stroke-width="1" fill="none" fill-rule="evenodd">
        <rect id="矩形" fill="#000000" fill-rule="nonzero" opacity="0" x="0" y="0" width="16" height="16"></rect>
        <rect id="矩形" fill="#000000" fill-rule="nonzero" opacity="0" x="2" y="2" width="12" height="12"></rect>
        <g id="编组" transform="translate(2.000000, 2.000000)" fill="#000000" fill-rule="nonzero">
            <path d="M7.125,3.75 C7.74632035,3.75 8.25,4.25367965 8.25,4.875 L8.25,10.875 C8.25,11.4963203 7.74632035,12 7.125,12 L1.125,12 C0.503679657,12 0,11.4963203 0,10.875 L0,4.875 C0,4.25367965 0.503679657,3.75 1.125,3.75 L7.125,3.75 Z M7.125,4.875 L1.125,4.875 L1.125,10.875 L7.125,10.875 L7.125,4.875 Z M6,8.25 L6,9.375 L2.25,9.375 L2.25,8.25 L6,8.25 Z M10.875,0 C11.4963203,0 12,0.503679657 12,1.125 L12,7.125 C12,7.74632035 11.4963203,8.25 10.875,8.25 L9.00000001,8.25 L9.00000001,7.125 L10.875,7.125 L10.875,1.125 L4.875,1.125 L4.875,3 L3.75,3 L3.75,1.125 C3.75,0.503679657 4.25367965,0 4.875,0 L10.875,0 Z M6,6.37499999 L6,7.5 L2.25,7.5 L2.25,6.37499999 L6,6.37499999 Z" id="形状"></path>
        </g>
    </g>
</svg>