<?xml version="1.0" encoding="UTF-8"?>
<svg width="16px" height="16px" viewBox="0 0 16 16" version="1.1" xmlns="http://www.w3.org/2000/svg" xmlns:xlink="http://www.w3.org/1999/xlink">
    <title>数据字典</title>
    <g id="数据字典" stroke="none" stroke-width="1" fill="none" fill-rule="evenodd">
        <rect id="矩形" fill="#000000" fill-rule="nonzero" opacity="0" x="0" y="0" width="16" height="16"></rect>
        <rect id="矩形" fill="#000000" fill-rule="nonzero" opacity="0" x="2" y="2" width="12" height="12"></rect>
        <g id="编组" transform="translate(3.000000, 2.000000)" fill="#000000" fill-rule="nonzero">
            <path d="M8.92857143,0 C9.52030509,0 10,0.474051442 10,1.05882353 L10,10.9411765 C10,11.5259486 9.52030509,12 8.92857143,12 L1.07142857,12 C0.47969491,12 0,11.5259486 0,10.9411765 L0,1.05882353 C0,0.474051442 0.47969491,0 1.07142857,0 L8.92857143,0 Z M8.92857143,10.2352941 L1.07142857,10.2352941 L1.07142857,10.9411765 L8.92857143,10.9411765 L8.92857143,10.2352941 Z M2.14285714,1.05882353 L1.07142857,1.05882353 L1.07142857,9.17647058 L8.92857143,9.17647058 L8.92857143,1.05882353 L5.71428572,1.05882353 L5.71428572,5.29411765 L3.92857143,4.5155294 L2.14285714,5.29411765 L2.14285714,1.05882353 Z M4.64285715,1.05882353 L3.21428571,1.05882353 L3.21428571,3.6695294 L3.92857143,3.35823528 L4.64285715,3.6695294 L4.64285715,1.05882353 L4.64285715,1.05882353 Z" id="形状"></path>
        </g>
    </g>
</svg>