<?xml version="1.0" encoding="UTF-8"?>
<svg width="38px" height="22px" viewBox="0 0 38 22" version="1.1" xmlns="http://www.w3.org/2000/svg" xmlns:xlink="http://www.w3.org/1999/xlink">
    <title>数据库</title>
    <defs>
        <filter color-interpolation-filters="auto" id="filter-1">
            <feColorMatrix in="SourceGraphic" type="matrix" values="0 0 0 0 1.000000 0 0 0 0 1.000000 0 0 0 0 1.000000 0 0 0 1.000000 0"></feColorMatrix>
        </filter>
    </defs>
    <g id="页面-1" stroke="none" stroke-width="1" fill="none" fill-rule="evenodd">
        <g id="精简模式" transform="translate(-1188.000000, -10.000000)">
            <g id="编组-3" transform="translate(441.000000, 11.000000)">
                <g id="数据库" transform="translate(748.000000, 0.000000)">
                    <rect id="矩形" stroke="#FFFFFF" stroke-width="0.5" fill="#FFFFFF" opacity="0.100000001" x="-0.25" y="-0.25" width="36.5" height="20.5" rx="2"></rect>
                    <g filter="url(#filter-1)" id="编组" opacity="0.649999976">
                        <g transform="translate(13.000000, 4.000000)">
                            <path d="M8.86363636,1.06888361 L8.86363636,2.35154394 L1.13636364,2.35154394 L1.13636364,1.06888361 L8.86363636,1.06888361 M9.54545455,0 L0.454545455,0 C0.204545455,0 0,0.19239905 0,0.427553444 L0,3.42042755 L10,3.42042755 L10,0.456057016 C10,0.228028508 9.79545455,0 9.54545455,0 Z" id="形状" fill="#000000" fill-rule="nonzero"></path>
                            <path d="M2.57575757,2.14489312 C2.32575757,2.14489312 2.12121212,1.95249407 2.12121212,1.71733968 C2.12121212,1.48218528 2.32575757,1.28978623 2.57575757,1.28978623 C2.82575757,1.28978623 3.03030303,1.48218528 3.03030303,1.71733968 C3.03030303,1.94536818 2.82575757,2.14489312 2.57575757,2.14489312 Z M8.86363636,9.64845606 L8.86363636,10.9311164 L1.13636364,10.9311164 L1.13636364,9.64845606 L8.86363636,9.64845606 M10,8.57957245 L0,8.57957245 L0,11.5724466 C0,11.807601 0.204545455,12 0.454545455,12 L9.54545455,12 C9.79545455,12 10,11.807601 10,11.5724466 L10,8.57957245 Z" id="形状" fill="#000000" fill-rule="nonzero"></path>
                            <path d="M2.57575757,9.86223278 C2.82575757,9.86223278 3.03030303,10.0546318 3.03030303,10.2897862 C3.03030303,10.5249406 2.82575757,10.7173397 2.57575757,10.7173397 C2.32575757,10.7173397 2.12121212,10.5249406 2.12121212,10.2897862 C2.12121212,10.0546318 2.32575757,9.86223278 2.57575757,9.86223278 Z M8.86363636,5.37292162 L8.86363636,6.65558195 L1.13636364,6.65558195 L1.13636364,5.37292162 L8.86363636,5.37292162 M10,4.30403801 L0,4.30403801 L0,7.72446556 L10,7.72446556 L10,4.30403801 Z" id="形状" fill="#000000" fill-rule="nonzero"></path>
                            <path d="M2.57575757,5.60095011 C2.82575757,5.60095011 3.03030303,5.79334916 3.03030303,6.02850356 C3.03030303,6.26365795 2.82575757,6.456057 2.57575757,6.456057 C2.32575757,6.456057 2.12121212,6.26365795 2.12121212,6.02850356 C2.12121212,5.79334916 2.32575757,5.60095011 2.57575757,5.60095011 Z" id="路径" fill="#000000" fill-rule="nonzero"></path>
                        </g>
                    </g>
                </g>
            </g>
        </g>
    </g>
</svg>