<?xml version="1.0" encoding="UTF-8"?>
<svg width="16px" height="16px" viewBox="0 0 16 16" version="1.1" xmlns="http://www.w3.org/2000/svg" xmlns:xlink="http://www.w3.org/1999/xlink">
    <title>数据域</title>
    <g id="数据域" stroke="none" stroke-width="1" fill="none" fill-rule="evenodd">
        <rect id="矩形" fill="#000000" fill-rule="nonzero" opacity="0" x="0" y="0" width="16" height="16"></rect>
        <rect id="矩形" fill="#000000" fill-rule="nonzero" opacity="0" x="2" y="2" width="11.9882927" height="11.9882927"></rect>
        <g id="编组" transform="translate(2.000000, 2.000000)" fill="#000000" fill-rule="nonzero">
            <path d="M6,0 C9.3137085,0 12,2.6862915 12,6 C12,9.3137085 9.3137085,12 6,12 C2.6862915,12 0,9.3137085 0,6 C0,2.6862915 2.6862915,0 6,0 Z M7.41825,8.84475 L7.25175,8.886 C6.495,9.063 5.72175,9.13125 4.944,9.0885 C5.18775,9.63075 5.48775,10.1685 5.844,10.701 L5.9625,10.875 C6.14862279,10.8761787 6.33466514,10.8669141 6.51975,10.84725 L6.51375,10.84425 L6.63675,10.63125 C6.97125,10.035 7.23225,9.43875 7.41825,8.84475 L7.41825,8.84475 Z M1.68075,8.26275 L1.6845,8.2695 C2.27460396,9.38854595 3.27543812,10.2353436 4.47675,10.632 C4.15746664,10.084749 3.8845152,9.51175173 3.66075,8.919 C2.97847799,8.77427136 2.31440251,8.55417059 1.68075,8.26275 L1.68075,8.26275 Z M10.731,7.1775 L10.575,7.2975 C9.99418912,7.73848626 9.36362521,8.10977639 8.69625,8.40375 C8.53953639,9.10972374 8.30380029,9.7957988 7.9935,10.449 C9.35896382,9.83541586 10.3678182,8.62976579 10.731,7.1775 L10.731,7.1775 Z M7.57575,5.01 L7.45725,5.058 C6.40407523,5.47329099 5.25882291,5.59864199 4.14073628,5.421 C4.13925,6.261 4.26075,7.0935 4.50675,7.917 C5.58211178,8.05592281 6.67503051,7.94452621 7.70025,7.5915 C7.8195931,6.73074274 7.77737138,5.85527786 7.57575,5.01 L7.57575,5.01 Z M1.38525,4.422 L1.36275,4.4895 C1.12767638,5.21118525 1.06449666,5.9778172 1.17825,6.72825 C1.86825,7.13925 2.57175,7.45125 3.2775,7.659 C3.08268948,6.83729616 2.99620577,5.99363874 3.02025,5.1495 C2.45234776,4.9621444 1.90461903,4.71843024 1.38525,4.422 L1.38525,4.422 Z M10.11075,3.37875 L10.07025,3.41475 C9.61683576,3.81941787 9.1267194,4.18097912 8.60625,4.49475 C8.83575,5.34225 8.92725,6.2025 8.87925,7.06725 C9.55815153,6.68960255 10.1842973,6.22409101 10.7415,5.68275 L10.8555,5.57175 C10.7881567,4.79129842 10.5326082,4.03880718 10.11075,3.37875 L10.11075,3.37875 Z M5.1525,1.1985 L5.1795,1.1415 C4.674,2.1975 4.3515,3.249 4.215,4.29375 C5.23468549,4.4750112 6.28519991,4.35080731 7.2345,3.93675 C6.849,2.9775 6.255,2.03025 5.45025,1.1055 L5.49075,1.15125 C5.37773348,1.16305995 5.26516465,1.17881959 5.15325,1.1985 L5.1525,1.1985 Z M3.723,1.68825 L3.5865,1.76325 C2.88907186,2.16169746 2.30029389,2.72549229 1.872,3.405 C2.295,3.648 2.7105,3.84525 3.12225,3.99675 C3.23842052,3.20778769 3.4398492,2.43375838 3.723,1.68825 L3.723,1.68825 Z M6.987,1.22475 L7.12125,1.4115 C7.56393395,2.033499 7.93692275,2.70226313 8.2335,3.40575 C8.6235,3.15525 9.0135,2.85525 9.39975,2.50725 C8.73484931,1.85760278 7.89743607,1.41247482 6.987,1.22475 L6.987,1.22475 Z" id="形状"></path>
        </g>
    </g>
</svg>