<?xml version="1.0" encoding="UTF-8"?>
<svg width="16px" height="16px" viewBox="0 0 16 16" version="1.1" xmlns="http://www.w3.org/2000/svg" xmlns:xlink="http://www.w3.org/1999/xlink">
    <title>文件夹</title>
    <g id="文件夹" stroke="none" stroke-width="1" fill="none" fill-rule="evenodd">
        <rect id="矩形" fill="#000000" fill-rule="nonzero" opacity="0" x="0" y="0" width="16" height="16"></rect>
        <rect id="矩形" fill="#000000" fill-rule="nonzero" opacity="0" x="2" y="2" width="11.9882927" height="11.9882927"></rect>
        <g id="编组" transform="translate(2.000000, 3.000000)" fill-rule="nonzero">
            <path d="M11.9982108,9.04796116 L0,9.04796116 L0,1.56237203 L11.1054123,1.56237203 C11.5992247,1.56237203 12,1.97999892 12,2.49457491 L12,9.04796116 L11.9982108,9.04796116 L11.9982108,9.04796116 Z M7.49843447,1.56237203 C7.49843447,0.699152161 6.82749366,0 5.99910541,0 L0,0 L0,1.56237203 L7.49843447,1.56237203" id="形状" fill="#CE9F06"></path>
            <polygon id="路径" fill="#FFFFFF" points="1.49932906 6.96169112 1.49932906 2.27457503 10.4988818 2.27457503 10.4988818 6.96169112"></polygon>
            <path d="M11.9982108,10.0379606 L11.9982108,3.96745546 C11.9982108,3.53677773 11.6618458,3.18626945 11.2485463,3.18626945 L0.74966453,3.18626945 C0.336364992,3.18626945 0,3.53677773 0,3.96745546 L0,10.0360962 C0,10.5674519 0.413299538,11 0.925003727,11 L11.0749963,11 C11.5849113,11.0018584 11.9982108,10.5693163 11.9982108,10.0379606 Z" id="路径" fill="#FFCD2C"></path>
        </g>
    </g>
</svg>