<?xml version="1.0" encoding="UTF-8"?>
<svg width="16px" height="16px" viewBox="0 0 16 16" version="1.1" xmlns="http://www.w3.org/2000/svg" xmlns:xlink="http://www.w3.org/1999/xlink">
    <title>模型</title>
    <g id="模型" stroke="none" stroke-width="1" fill="none" fill-rule="evenodd">
        <rect id="矩形" fill="#000000" fill-rule="nonzero" opacity="0" x="0" y="0" width="16" height="16"></rect>
        <rect id="矩形" fill="#000000" fill-rule="nonzero" opacity="0" x="2" y="2" width="11.9882927" height="11.9882927"></rect>
        <g id="编组" transform="translate(3.000000, 2.000000)" fill="#000000" fill-rule="nonzero">
            <path d="M5.00018906,0 C5.69584046,0 6.34825095,0.315006791 6.7499761,0.845088642 C7.15170124,1.37517049 7.25274801,2.05427525 7.02098695,2.66647061 L8.86557005,2.66647061 C9.49209841,2.66647061 10,3.14052205 10,3.72529414 L10,10.9411765 C10,11.5259486 9.49209841,12 8.86557005,12 L1.13442995,12 C0.507901588,12 0,11.5259486 0,10.9411765 L0,9.50011765 C0,9.24035295 0.212516538,9.0264706 0.484023433,9.0024706 L0.535829073,9 C1.40821834,8.99998163 2.12128076,8.35037143 2.1424296,7.53636365 C2.16357844,6.72235586 1.48508952,6.04125013 0.613726602,6.00176472 L0.535829073,6 C0.260016947,5.99993431 0.029313364,5.80445936 0.00264699731,5.5482353 L0,5.49952942 L0,3.72529414 C0,3.14052205 0.507901588,2.66647061 1.13442995,2.66647061 L2.97901305,2.66647061 C2.89806471,2.45220169 2.85688627,2.22661074 2.85725089,1.99941179 C2.85725089,0.58588238 3.4849688,0 5.00018906,0 Z M5.00018906,1.05882339 C4.67269018,1.05864837 4.36549259,1.20691131 4.1763344,1.45644096 C3.98717622,1.70597061 3.93961412,2.02569199 4.04878049,2.31388238 L4.58309699,3.72529414 L1.13442995,3.72529414 L1.13442995,5.00223531 C2.36935073,5.26099742 3.25419634,6.27487236 3.27592349,7.45600419 C3.29765063,8.63713601 2.45061639,9.6787642 1.22594062,9.97694118 L1.13442995,9.99776471 L1.13442995,10.9411765 L8.86557005,10.9411765 L8.86557005,3.72564707 L5.41690301,3.72529414 L5.95121951,2.31352942 C6.06023162,2.02538162 6.0125938,1.70577342 5.82345469,1.45633912 C5.63431559,1.20690481 5.32721541,1.05868891 4.99981092,1.05882339 L5.00018906,1.05882339 Z" id="形状"></path>
        </g>
    </g>
</svg>