<?xml version="1.0" encoding="UTF-8"?>
<svg width="16px" height="16px" viewBox="0 0 16 16" version="1.1" xmlns="http://www.w3.org/2000/svg" xmlns:xlink="http://www.w3.org/1999/xlink">
    <title>清空</title>
    <g id="清空" stroke="none" stroke-width="1" fill="none" fill-rule="evenodd">
        <rect id="矩形" fill="#000000" fill-rule="nonzero" opacity="0" x="0" y="0" width="16" height="16"></rect>
        <rect id="矩形" fill="#000000" fill-rule="nonzero" opacity="0" x="2" y="2" width="12" height="12"></rect>
        <path d="M13.4184253,2 L14.2759183,2.51449576 L11.685,6.831 L14.2314839,7.75857371 L13.9396051,8.54163032 C12.4945187,12.3273461 11.0312644,14.0430335 9.38433584,13.4436005 L9.38433584,13.4436005 L2,10.755922 L2.34202014,9.81622942 C3.17792092,10.1204724 4.66538911,9.50132515 6.73778864,7.91898365 L6.73778864,7.91898365 L7.2463611,7.52070798 C7.766096,7.10389822 8.31921588,6.63142506 8.90479958,6.10273824 L8.90479958,6.10273824 L9.12813191,5.90110548 L10.728,6.483 L13.4184253,2 Z M9.34989237,7.04599746 L8.93391141,7.4132285 C7.12003198,8.99023225 5.60009666,10.0375822 4.34147056,10.5439699 L4.34147056,10.5439699 L5.75,11.056 L5.63074774,10.8065145 L5.90135608,10.6747609 L6.40341553,10.4193321 C7.43445216,9.87793697 8.09569654,9.41634239 8.37038395,9.0653828 L8.42690377,8.98637009 L9.26743985,9.52812566 C8.90492272,10.0905725 8.05382148,10.6985656 6.68915385,11.3980532 L7.708,11.768 L7.90135608,11.6747609 L8.40341553,11.4193321 C9.43445216,10.877937 10.0956965,10.4163424 10.370384,10.0653828 L10.4269038,9.98637009 L11.2674399,10.5281257 C10.9329578,11.0470759 10.1825386,11.6048001 8.99655923,12.2373897 L9.72635599,12.5039079 C10.4672085,12.7735561 11.3989629,11.8506451 12.4234194,9.58975482 L12.4234194,9.58975482 L12.6525625,9.0652513 C12.7294255,8.88303594 12.8067573,8.69342003 12.884518,8.49634445 L12.884518,8.49634445 L12.9395182,8.35251441 L9.34989237,7.04599746 Z" id="形状结合" fill="#000000" fill-rule="nonzero"></path>
    </g>
</svg>