<?xml version="1.0" encoding="UTF-8"?>
<svg width="16px" height="16px" viewBox="0 0 16 16" version="1.1" xmlns="http://www.w3.org/2000/svg" xmlns:xlink="http://www.w3.org/1999/xlink">
    <title>移动</title>
    <g id="移动" stroke="none" stroke-width="1" fill="none" fill-rule="evenodd">
        <rect id="矩形" fill="#000000" fill-rule="nonzero" opacity="0" x="0" y="0" width="16" height="16"></rect>
        <rect id="矩形" fill="#000000" fill-rule="nonzero" opacity="0" x="2" y="2" width="12" height="12"></rect>
        <g id="编组" transform="translate(2.000000, 2.000000)" fill="#000000" fill-rule="nonzero">
            <path d="M6.79856479,10.0141718 L7.26929467,9.5557954 C7.37812364,9.44600613 7.53928292,9.40197497 7.69083083,9.44062532 C7.84237873,9.47927567 7.96073087,9.59459264 8.00039851,9.74225406 C8.04006614,9.88991548 7.99487607,10.0469418 7.88219712,10.1529798 L5.98656297,12 L4.09063983,10.1529798 C3.97796089,10.0469418 3.93277081,9.88991548 3.97243845,9.74225406 C4.01210608,9.59459264 4.13045822,9.47927567 4.28200613,9.44062532 C4.43355403,9.40197497 4.59471331,9.44600613 4.70354228,9.5557954 L5.35372168,10.1893008 L5.35372168,6.70389489 L1.88609821,6.70389489 C1.86587041,6.70389489 1.84564259,6.70305021 1.82599272,6.70136087 L2.35133768,7.26447676 C2.45550537,7.37613274 2.4906247,7.53345474 2.44346655,7.67718109 C2.3963084,7.82090744 2.27403722,7.92920269 2.12271138,7.96127307 C1.97138554,7.99334345 1.81399503,7.94431669 1.70982734,7.83266072 L2.88737657e-16,6 L1.70982734,4.16733928 C1.81399503,4.05568331 1.97138553,4.00665655 2.12271138,4.03872693 C2.27403722,4.0707973 2.3963084,4.17909255 2.44346655,4.3228189 C2.4906247,4.46654525 2.45550537,4.62386725 2.35133768,4.73552322 L1.82599272,5.29863913 C1.84593156,5.29694979 1.86587039,5.29610511 1.88609821,5.29610511 L5.35372168,5.29610511 L5.35372168,1.81069921 L4.70354228,2.4442046 C4.59471331,2.55399387 4.43355403,2.59802503 4.28200613,2.55937468 C4.13045822,2.52072433 4.01210608,2.40540736 3.97243845,2.25774594 C3.93277081,2.11008452 3.97796089,1.9530582 4.09063983,1.84702018 L5.98627399,0 L7.88219712,1.84702018 C8.04646374,2.01273628 8.0441145,2.27615031 7.87691705,2.43905994 C7.7097196,2.60196957 7.43937245,2.60425856 7.26929467,2.4442046 L6.79856479,1.98582825 L6.79856479,5.29610511 L10.1716955,5.29610511 L9.64866232,4.73552322 C9.54449463,4.62386725 9.5093753,4.46654525 9.55653345,4.3228189 C9.6036916,4.17909255 9.72596278,4.0707973 9.87728862,4.03872693 C10.0286145,4.00665655 10.186005,4.05568331 10.2901727,4.16733928 L12,6 L10.2901727,7.83266072 C10.1291434,8.0052659 9.85499634,8.01799774 9.67784815,7.86109807 C9.50069996,7.7041984 9.48763302,7.43708195 9.64866232,7.26447676 L10.1716955,6.70389489 L6.79856479,6.70389489 L6.79856479,10.0141718 Z" id="路径"></path>
        </g>
    </g>
</svg>