<?xml version="1.0" encoding="UTF-8"?>
<svg width="16px" height="16px" viewBox="0 0 16 16" version="1.1" xmlns="http://www.w3.org/2000/svg" xmlns:xlink="http://www.w3.org/1999/xlink">
    <title>系统管理</title>
    <g id="系统管理" stroke="none" stroke-width="1" fill="none" fill-rule="evenodd">
        <rect id="矩形" fill="#000000" fill-rule="nonzero" opacity="0" x="0" y="0" width="16" height="16"></rect>
        <rect id="矩形" fill="#000000" fill-rule="nonzero" opacity="0" x="2" y="2" width="11.9882927" height="11.9882927"></rect>
        <g id="编组" transform="translate(2.000000, 3.000000)" fill="#FFFFFF" fill-rule="nonzero">
            <path d="M1.21519473,11 L10.7848053,11 C11.4559388,11 12,10.4559638 12,9.78486111 L12,1.21513889 C12,0.544036213 11.4559388,0 10.7848053,0 L1.21519473,0 C0.54406121,0 0,0.544036213 0,1.21513889 L0,9.78486111 C0,10.4559638 0.54406121,11 1.21519473,11 Z M0.999505835,9.99994261 L0.999505835,2.80027568 L11.0004942,2.80027568 L11.0004942,9.99994261 L0.999505835,9.99994261 Z M6.89984611,6.40011478 L8.09985513,6.40011478 L8.09985513,5.59994261 L9.70025046,5.59994261 L9.70025046,4.90002306 L8.09985513,4.90002306 L8.09985513,4.10047091 L6.89984611,4.10047091 L6.89984611,4.90002306 L2.30035832,4.90002306 L2.30035832,5.59994261 L6.89984611,5.59994261 L6.89984611,6.40011478 L6.89984611,6.40011478 Z M4.80000225,6.70025262 L3.60000451,6.70025262 L3.60000451,7.50041352 L2.29974954,7.50041352 L2.29974954,8.20033307 L3.60000451,8.20033307 L3.60000451,9.10013784 L4.80000225,9.10013784 L4.80000225,8.29996567 L9.80051897,8.29996567 L9.80051897,7.60005739 L4.80000225,7.60005739 L4.80000225,6.7008501 L4.80000225,6.70025262 Z" id="形状"></path>
        </g>
    </g>
</svg>