<?xml version="1.0" encoding="UTF-8"?>
<svg width="24px" height="20px" viewBox="0 0 24 20" version="1.1" xmlns="http://www.w3.org/2000/svg" xmlns:xlink="http://www.w3.org/1999/xlink">
    <title>编组</title>
    <g id="页面-1" stroke="none" stroke-width="1" fill="none" fill-rule="evenodd">
        <g id="登录" transform="translate(-1111.000000, -203.000000)" fill="#FFFFFF" fill-rule="nonzero">
            <g id="编组" transform="translate(1111.000000, 203.000000)">
                <path d="M16.2477261,6.05133527 C16.5230975,6.05133527 16.7950877,6.07203542 17.0656442,6.10294728 C16.3307703,2.601273 12.6717115,0 8.49472182,0 C3.82536366,0 0,3.2560952 0,7.39078456 C0,9.77744569 1.27255145,11.7372907 3.39951174,13.2573405 L2.54997194,15.871648 L5.51887092,14.3481112 C6.58202647,14.5634426 7.43429835,14.7843919 8.49466772,14.7843919 C8.76111258,14.7843919 9.02555571,14.771053 9.28788893,14.7499931 C9.12169226,14.1689498 9.02555571,13.5604815 9.02555571,12.9292376 C9.02560981,9.13247544 12.2122362,6.05133527 16.247699,6.05133527 L16.2477261,6.05133527 Z M11.6799686,3.69517089 C12.3194092,3.69517089 12.7430971,4.12550159 12.7430971,4.77960426 C12.7430971,5.43093953 12.3193822,5.86719247 11.6799686,5.86719247 C11.0433142,5.86719247 10.404631,5.43091186 10.404631,4.77960426 C10.404631,4.12552927 11.0433412,3.69519856 11.6799686,3.69519856 L11.6799686,3.69517089 Z M5.73527284,5.86722015 C5.09856431,5.86722015 4.45579653,5.43093953 4.45579653,4.77963194 C4.45579653,4.12555694 5.09861841,3.69522623 5.73527284,3.69522623 C6.37187316,3.69522623 6.79564221,4.12555694 6.79564221,4.77963194 C6.79564221,5.43093953 6.37187316,5.86722015 5.73527284,5.86722015 Z" id="形状"></path>
                <path d="M24,12.8245745 C24,9.3502975 20.6018949,6.51816798 16.7847815,6.51816798 C12.7431242,6.51816798 9.55993319,9.3502975 9.55993319,12.8245745 C9.55993319,16.3051335 12.7431242,19.1309257 16.7847815,19.1309257 C17.630886,19.1309257 18.4845645,18.9123564 19.3340772,18.6946174 L21.6636438,20 L21.0249336,17.8283382 C22.7301806,16.5197454 24,14.7843919 24,12.8246022 L24,12.8245745 Z M14.442853,11.7372907 C14.0198143,11.7372907 13.5926369,11.3069877 13.5926369,10.8678843 C13.5926369,10.4347309 14.0198143,9.99878234 14.4428259,9.99878234 C15.0849986,9.99878234 15.5060085,10.4347585 15.5060085,10.8678843 C15.5060085,11.3069877 15.0850257,11.7372907 14.442853,11.7372907 L14.442853,11.7372907 Z M19.1149703,11.7372907 C18.6946637,11.7372907 18.2709758,11.3069877 18.2709758,10.8678843 C18.2709758,10.4347309 18.6946907,9.99878234 19.1149973,9.99878234 C19.7516518,9.99878234 20.1780717,10.4347585 20.1780717,10.8678843 C20.1780988,11.3069877 19.7516518,11.7372907 19.1149973,11.7372907 L19.1149703,11.7372907 Z" id="形状"></path>
            </g>
        </g>
    </g>
</svg>