<?xml version="1.0" encoding="UTF-8"?>
<svg width="16px" height="16px" viewBox="0 0 16 16" version="1.1" xmlns="http://www.w3.org/2000/svg" xmlns:xlink="http://www.w3.org/1999/xlink">
    <title>表</title>
    <g id="表" stroke="none" stroke-width="1" fill="none" fill-rule="evenodd">
        <rect id="矩形" fill="#000000" fill-rule="nonzero" opacity="0" x="0" y="0" width="16" height="16"></rect>
        <rect id="矩形" fill="#000000" fill-rule="nonzero" opacity="0" x="2" y="2" width="12" height="12"></rect>
        <path d="M12.875,2 C13.4963203,2 14,2.50367966 14,3.125 L14,12.875 C14,13.4963203 13.4963203,14 12.875,14 L3.125,14 C2.50367966,14 2,13.4963203 2,12.875 L2,3.125 C2,2.50367966 2.50367966,2 3.125,2 L12.875,2 Z M4.99999999,11.1875 L3.125,11.1875 L3.125,12.875 L4.99999999,12.875 L4.99999999,11.1875 Z M12.875,11.1875 L6.12499999,11.1875 L6.12499999,12.875 L12.875,12.875 L12.875,11.1875 Z M4.99999999,8.37499999 L3.125,8.37499999 L3.125,10.0625 L4.99999999,10.0625 L4.99999999,8.37499999 Z M12.875,8.37499999 L6.12499999,8.37499999 L6.12499999,10.0625 L12.875,10.0625 L12.875,8.37499999 Z M3.125,5.56249999 L3.125,7.24999999 L4.99999999,7.24999999 L4.99999999,5.56249999 L3.125,5.56249999 L3.125,5.56249999 Z M12.875,3.125 L3.125,3.125 L3.125,4.43749999 L12.875,4.43749999 L12.875,3.125 L12.875,3.125 Z M6.12499999,7.24999999 L12.875,7.24999999 L12.875,5.56249999 L6.12499999,5.56249999 L6.12499999,7.24999999 Z" id="形状" fill="#000000" fill-rule="nonzero"></path>
    </g>
</svg>