<?xml version="1.0" encoding="UTF-8"?>
<svg width="32px" height="22px" viewBox="0 0 32 22" version="1.1" xmlns="http://www.w3.org/2000/svg" xmlns:xlink="http://www.w3.org/1999/xlink">
    <title>设置</title>
    <defs>
        <filter color-interpolation-filters="auto" id="filter-1">
            <feColorMatrix in="SourceGraphic" type="matrix" values="0 0 0 0 1.000000 0 0 0 0 1.000000 0 0 0 0 1.000000 0 0 0 1.000000 0"></feColorMatrix>
        </filter>
    </defs>
    <g id="页面-1" stroke="none" stroke-width="1" fill="none" fill-rule="evenodd">
        <g id="精简模式" transform="translate(-1148.000000, -10.000000)">
            <g id="编组-3" transform="translate(441.000000, 11.000000)">
                <g id="设置" transform="translate(708.000000, 0.000000)">
                    <rect id="矩形" stroke="#FFFFFF" stroke-width="0.5" fill="#FFFFFF" opacity="0.100000001" x="-0.25" y="-0.25" width="30.5" height="20.5" rx="2"></rect>
                    <g filter="url(#filter-1)" id="编组" opacity="0.649999976">
                        <g transform="translate(9.000000, 4.000000)">
                            <path d="M5.0539833,0 L6.98935994,0.00282959369 C7.59026839,0.0038037255 8.07709534,0.477728594 8.07789571,1.06251657 L8.07862262,1.36952868 C8.45353465,1.52093091 8.80868151,1.71505232 9.13662851,1.94782915 L9.39576909,1.80281192 C9.91658654,1.51113452 10.5817222,1.68450498 10.8830106,2.19046776 L11.8530614,3.82032009 C12.1419103,4.30569043 11.9927093,4.92599896 11.5125078,5.23618356 L11.4532653,5.27155363 L11.1930343,5.41763196 C11.2377388,5.81943584 11.232287,6.22760631 11.1737714,6.63330091 L11.3576776,6.73693518 C11.857707,7.01781227 12.0460753,7.6293269 11.7872767,8.13157661 L11.7571103,8.18640021 L10.8484828,9.71792377 C10.5598628,10.2045387 9.93149061,10.3878535 9.41539544,10.1359979 L9.35869708,10.106287 L9.10755242,9.96480679 C8.79173749,10.1859369 8.45089322,10.371072 8.09170686,10.5165797 L8.09170686,10.9374834 C8.09245521,11.4982254 7.64475052,11.9627384 7.0696826,11.9978778 L7.00026347,12 L5.06488683,11.9971704 C4.46412,11.9961968 3.97735149,11.522487 3.97635104,10.9378371 L3.97526069,10.4302768 C3.67532321,10.2932182 3.38966197,10.1283384 3.12224117,9.93792553 L2.65847768,10.1975418 C2.13756521,10.4891596 1.47240027,10.3156234 1.17123614,9.80953222 L0.201185384,8.1800336 C-0.0878963283,7.69458367 0.0613279231,7.07402364 0.541738977,6.76381642 L0.600981503,6.72844637 L1.0727409,6.46423203 C1.03639581,6.12821646 1.03457855,5.7883102 1.06946985,5.44911132 L0.545736943,5.15447872 C0.0455734427,4.87371997 -0.142962818,4.26217721 0.115774402,3.75983729 L0.146304287,3.70501369 L1.05493181,2.17349014 C1.3435518,1.68687519 1.97192398,1.50356038 2.48801915,1.75541603 L2.54435406,1.78512688 L3.00084853,2.04155982 C3.29835141,1.81580662 3.62078477,1.62302857 3.96217645,1.46679635 L3.96217645,1.06287027 C3.96123583,0.50199193 4.40899268,0.0372698734 4.98420071,0.00212220355 L5.05361984,0 L5.0539833,0 Z M5.05252948,1.06110178 L5.05361984,2.13988857 L4.4270303,2.42673976 C4.15880346,2.54947388 3.90547811,2.70085772 3.67214254,2.87806172 L3.09280163,3.31806526 L2.02679981,2.71889645 L1.99954099,2.70404102 L1.09091346,4.23556458 L2.22488062,4.87257936 L2.15437112,5.5548678 C2.12711229,5.81978955 2.12820264,6.0871872 2.15691528,6.35210893 L2.23178618,7.03899548 L1.14506767,7.6480679 L2.11475496,9.27756653 L3.19384102,8.67379962 L3.76627637,9.0816164 C3.97702523,9.23184813 4.20220004,9.36190711 4.43866073,9.46997965 L5.06452337,9.75612344 L5.06670407,10.9360686 L7.00171727,10.9388982 L7.00062691,9.80882483 L7.67301129,9.53647537 C7.95506692,9.42231673 8.2227404,9.27705803 8.47078625,9.10354584 L9.04285815,8.70351047 L9.90423705,9.18737288 L10.8121377,7.65549561 L9.9921922,7.19427005 L10.0939585,6.48651516 C10.1393899,6.16995314 10.1444782,5.8495004 10.1092234,5.53152357 L10.0328987,4.84428331 L10.9095425,4.35193208 L9.93949179,2.72243345 L9.06720936,3.21160137 L8.49441057,2.80519939 C8.23594251,2.62175531 7.95607808,2.46871807 7.66065395,2.34927934 L6.98972338,2.07834467 L6.98754268,1.06393137 L5.05252948,1.06110178 L5.05252948,1.06110178 Z M7.22269549,4.10717127 C8.26541625,4.69404381 8.62286415,5.99178718 8.0215608,7.00751614 C7.7329275,7.49512011 7.25688179,7.85099951 6.69836584,7.99670231 C6.13984988,8.1424051 5.54472006,8.06596851 5.04417012,7.78424264 C4.00158125,7.19724906 3.64430382,5.8995342 4.24566824,4.88389777 C4.53430041,4.39638986 5.01027993,4.04057946 5.56870816,3.89488176 C6.1271364,3.74918407 6.72217822,3.82555777 7.22269549,4.10717127 L7.22269549,4.10717127 Z M5.18991397,5.41374127 C4.88894715,5.92220284 5.06781663,6.57180374 5.58971009,6.86568219 C5.83971941,7.00650852 6.13703177,7.04474313 6.41604822,6.97194994 C6.69506468,6.89915675 6.93285444,6.72131824 7.07695163,6.47767264 C7.36544673,5.99020819 7.21415694,5.3684281 6.73167316,5.05862587 L6.67715551,5.02573171 L6.62082061,4.99637456 C6.10558789,4.74423861 5.4777022,4.92738024 5.18991397,5.41374127 L5.18991397,5.41374127 Z" id="形状" fill="#000000" fill-rule="nonzero"></path>
                        </g>
                    </g>
                </g>
            </g>
        </g>
    </g>
</svg>